G04*
G04 #@! TF.GenerationSoftware,Altium Limited,Altium Designer,26.3.0 (6)*
G04*
G04 Layer_Color=32768*
%FSLAX25Y25*%
%MOIN*%
G70*
G04*
G04 #@! TF.SameCoordinates,D4C32256-51F4-4DD4-AA79-378863D69736*
G04*
G04*
G04 #@! TF.FilePolarity,Positive*
G04*
G01*
G75*
%ADD58C,0.00197*%
D58*
X-4937Y147320D02*
Y238186D01*
X206087D01*
Y147320D02*
Y238186D01*
X-4937Y147320D02*
X206087D01*
X-6498Y82765D02*
X51474D01*
X-6498Y28435D02*
Y82765D01*
Y28435D02*
X51474D01*
Y82765D01*
X54520Y35845D02*
X69480D01*
Y28955D02*
Y35845D01*
X54520Y28955D02*
X69480D01*
X54520D02*
Y35845D01*
X68140Y36735D02*
Y41065D01*
X60660Y36735D02*
Y41065D01*
X68140D01*
X60660Y36735D02*
X68140D01*
X537331Y76194D02*
Y125406D01*
X478669D02*
X537331D01*
X478669Y76194D02*
Y125406D01*
Y76194D02*
X537331D01*
X409669D02*
X468331D01*
X409669D02*
Y125406D01*
X468331D01*
Y76194D02*
Y125406D01*
X444669Y201594D02*
X503331D01*
X444669D02*
Y250806D01*
X503331D01*
Y201594D02*
Y250806D01*
X409669Y138894D02*
X468331D01*
X409669D02*
Y188106D01*
X468331D01*
Y138894D02*
Y188106D01*
X478669Y138894D02*
X537331D01*
X478669D02*
Y188106D01*
X537331D01*
Y138894D02*
Y188106D01*
X-6591Y99544D02*
Y133060D01*
Y99544D02*
X25693D01*
Y133060D01*
X-6591D02*
X25693D01*
X101909Y59397D02*
X113091D01*
Y9003D02*
Y59397D01*
X101909Y9003D02*
X113091D01*
X101909D02*
Y59397D01*
M02*
