G04*
G04 #@! TF.GenerationSoftware,Altium Limited,Altium Designer,26.3.0 (6)*
G04*
G04 Layer_Color=255*
%FSLAX25Y25*%
%MOIN*%
G70*
G04*
G04 #@! TF.SameCoordinates,D4C32256-51F4-4DD4-AA79-378863D69736*
G04*
G04*
G04 #@! TF.FilePolarity,Positive*
G04*
G01*
G75*
%ADD15O,0.05709X0.04134*%
%ADD16O,0.07087X0.04331*%
G04:AMPARAMS|DCode=17|XSize=59.06mil|YSize=59.06mil|CornerRadius=11.81mil|HoleSize=0mil|Usage=FLASHONLY|Rotation=90.000|XOffset=0mil|YOffset=0mil|HoleType=Round|Shape=RoundedRectangle|*
%AMROUNDEDRECTD17*
21,1,0.05906,0.03543,0,0,90.0*
21,1,0.03543,0.05906,0,0,90.0*
1,1,0.02362,0.01772,0.01772*
1,1,0.02362,0.01772,-0.01772*
1,1,0.02362,-0.01772,-0.01772*
1,1,0.02362,-0.01772,0.01772*
%
%ADD17ROUNDEDRECTD17*%
%ADD18R,0.04724X0.04724*%
%ADD19R,0.02126X0.02362*%
%ADD41R,0.03937X0.03937*%
G04:AMPARAMS|DCode=42|XSize=59.06mil|YSize=59.06mil|CornerRadius=29.53mil|HoleSize=0mil|Usage=FLASHONLY|Rotation=90.000|XOffset=0mil|YOffset=0mil|HoleType=Round|Shape=RoundedRectangle|*
%AMROUNDEDRECTD42*
21,1,0.05906,0.00000,0,0,90.0*
21,1,0.00000,0.05906,0,0,90.0*
1,1,0.05906,0.00000,0.00000*
1,1,0.05906,0.00000,0.00000*
1,1,0.05906,0.00000,0.00000*
1,1,0.05906,0.00000,0.00000*
%
%ADD42ROUNDEDRECTD42*%
G04:AMPARAMS|DCode=43|XSize=59.06mil|YSize=59.06mil|CornerRadius=29.53mil|HoleSize=0mil|Usage=FLASHONLY|Rotation=90.000|XOffset=0mil|YOffset=0mil|HoleType=Round|Shape=RoundedRectangle|*
%AMROUNDEDRECTD43*
21,1,0.05906,0.00000,0,0,90.0*
21,1,0.00000,0.05906,0,0,90.0*
1,1,0.05906,0.00000,0.00000*
1,1,0.05906,0.00000,0.00000*
1,1,0.05906,0.00000,0.00000*
1,1,0.05906,0.00000,0.00000*
%
%ADD43ROUNDEDRECTD43*%
%ADD44C,0.06000*%
%ADD45C,0.07382*%
%ADD46C,0.05504*%
%ADD47R,0.04528X0.04528*%
%ADD48C,0.10039*%
%ADD49R,0.10039X0.10039*%
%ADD50C,0.05937*%
%ADD51R,0.07382X0.07382*%
%ADD52C,0.07284*%
%ADD53C,0.08000*%
%ADD54C,0.04528*%
%ADD55R,0.05504X0.05504*%
%ADD56C,0.11811*%
D15*
X19000Y202300D02*
D03*
Y183206D02*
D03*
D16*
X7071Y203481D02*
D03*
Y182025D02*
D03*
D17*
X52346Y182910D02*
D03*
X42504D02*
D03*
X32662D02*
D03*
X18882Y192753D02*
D03*
X5890Y196690D02*
D03*
Y188816D02*
D03*
D18*
X57866Y32400D02*
D03*
X66134D02*
D03*
D19*
X62699Y38900D02*
D03*
X66101D02*
D03*
D41*
X198803Y202753D02*
D03*
X146559Y230902D02*
D03*
X136559D02*
D03*
X116559D02*
D03*
X106559D02*
D03*
X96559D02*
D03*
X86559D02*
D03*
X66559D02*
D03*
X56559D02*
D03*
X46559D02*
D03*
X166559Y154603D02*
D03*
X156559D02*
D03*
X146559D02*
D03*
X136559D02*
D03*
X116559D02*
D03*
X106559D02*
D03*
X96559D02*
D03*
X86559D02*
D03*
X66559D02*
D03*
X56559D02*
D03*
X46559D02*
D03*
X36559D02*
D03*
X16559D02*
D03*
X198803Y182753D02*
D03*
X6559Y230902D02*
D03*
Y154603D02*
D03*
X186559D02*
D03*
X166559Y230902D02*
D03*
X186559D02*
D03*
X16559D02*
D03*
X196559Y154603D02*
D03*
X26559D02*
D03*
X76559D02*
D03*
X126559D02*
D03*
X176559D02*
D03*
Y230902D02*
D03*
X126559D02*
D03*
X76559D02*
D03*
X36559D02*
D03*
X26559D02*
D03*
X198803Y192753D02*
D03*
X156559Y230902D02*
D03*
X196559D02*
D03*
D42*
X388200Y234000D02*
D03*
Y224000D02*
D03*
Y214000D02*
D03*
Y204000D02*
D03*
Y194000D02*
D03*
Y184000D02*
D03*
Y174000D02*
D03*
Y164000D02*
D03*
Y154000D02*
D03*
Y144000D02*
D03*
Y134000D02*
D03*
Y124000D02*
D03*
Y114000D02*
D03*
D43*
Y104000D02*
D03*
D44*
X68200Y83000D02*
D03*
Y256000D02*
D03*
X369700Y81500D02*
D03*
Y256500D02*
D03*
X318867Y178680D02*
D03*
X208200Y192900D02*
D03*
X182000Y220300D02*
D03*
X133500Y244800D02*
D03*
X176500Y144800D02*
D03*
X93200Y243600D02*
D03*
X34000Y243400D02*
D03*
X126500Y145300D02*
D03*
X76500Y144800D02*
D03*
X26500Y144300D02*
D03*
X22500Y255000D02*
D03*
X86559Y144941D02*
D03*
X96200Y144900D02*
D03*
X522516Y19000D02*
D03*
X22500D02*
D03*
X522516Y255000D02*
D03*
D45*
X532606Y110643D02*
D03*
X483394D02*
D03*
X414394D02*
D03*
X463606D02*
D03*
X449394Y236042D02*
D03*
X498606D02*
D03*
X414394Y173343D02*
D03*
X463606D02*
D03*
X483394D02*
D03*
X532606D02*
D03*
X483394Y90957D02*
D03*
X414394D02*
D03*
X449394Y216357D02*
D03*
X414394Y153657D02*
D03*
X483394D02*
D03*
D46*
X107500Y14200D02*
D03*
Y44200D02*
D03*
Y24200D02*
D03*
Y34200D02*
D03*
D47*
X19000Y124202D02*
D03*
D48*
X45470Y65443D02*
D03*
D49*
Y45757D02*
D03*
D50*
X6100Y77254D02*
D03*
Y33946D02*
D03*
D51*
X532606Y90957D02*
D03*
X463606D02*
D03*
X498606Y216357D02*
D03*
X463606Y153657D02*
D03*
X532606D02*
D03*
D52*
X508000Y83083D02*
D03*
Y118517D02*
D03*
X439000D02*
D03*
Y83083D02*
D03*
X474000Y243917D02*
D03*
Y208484D02*
D03*
X439000Y181217D02*
D03*
Y145783D02*
D03*
X508000Y181217D02*
D03*
Y145783D02*
D03*
D53*
X290000Y55500D02*
D03*
Y12500D02*
D03*
X203000D02*
D03*
Y55500D02*
D03*
D54*
X19000Y116300D02*
D03*
Y108402D02*
D03*
D55*
X107500Y54200D02*
D03*
D56*
X180500Y13200D02*
D03*
Y55200D02*
D03*
M02*
