G04*
G04 #@! TF.GenerationSoftware,Altium Limited,Altium Designer,26.3.0 (6)*
G04*
G04 Layer_Color=65535*
%FSLAX25Y25*%
%MOIN*%
G70*
G04*
G04 #@! TF.SameCoordinates,D4C32256-51F4-4DD4-AA79-378863D69736*
G04*
G04*
G04 #@! TF.FilePolarity,Positive*
G04*
G01*
G75*
%ADD10C,0.00472*%
%ADD11C,0.00787*%
%ADD12C,0.01000*%
%ADD13C,0.00500*%
%ADD14C,0.00800*%
D10*
X376771Y256500D02*
G03*
X376771Y256500I-7071J0D01*
G01*
X75271Y256000D02*
G03*
X75271Y256000I-7071J0D01*
G01*
X376771Y81500D02*
G03*
X376771Y81500I-7071J0D01*
G01*
X75271Y83000D02*
G03*
X75271Y83000I-7071J0D01*
G01*
X379326Y99079D02*
Y238921D01*
X380326Y109000D02*
X396074D01*
X84200Y69000D02*
Y269000D01*
X403200Y69000D02*
Y269000D01*
X380326Y99079D02*
X396074D01*
X353200Y69000D02*
Y269000D01*
X53200Y69000D02*
X403200D01*
X380326Y238921D02*
X396074D01*
X53200Y69000D02*
Y269000D01*
X396074Y99079D02*
Y238921D01*
X53200Y269000D02*
X403200D01*
D11*
X6953Y144761D02*
G03*
X6953Y144761I-394J0D01*
G01*
X53535Y32400D02*
G03*
X53535Y32400I-394J0D01*
G01*
X539102Y90564D02*
G03*
X539102Y90564I-394J0D01*
G01*
X470102D02*
G03*
X470102Y90564I-394J0D01*
G01*
X505102Y215964D02*
G03*
X505102Y215964I-394J0D01*
G01*
X470102Y153264D02*
G03*
X470102Y153264I-394J0D01*
G01*
X539102D02*
G03*
X539102Y153264I-394J0D01*
G01*
X19394Y134635D02*
G03*
X19394Y134635I-394J0D01*
G01*
X116437Y54200D02*
G03*
X116437Y54200I-394J0D01*
G01*
D12*
X190400Y54600D02*
G03*
X180900Y64100I-9500J0D01*
G01*
X514000Y244D02*
G03*
X545016Y31260I0J31016D01*
G01*
X16Y31226D02*
G03*
X31032Y210I31016J0D01*
G01*
X545016Y242500D02*
G03*
X514000Y273516I-31016J0D01*
G01*
X31100Y273600D02*
G03*
X84Y242584I0J-31016D01*
G01*
X105400Y64100D02*
G03*
X95900Y54600I-0J-9500D01*
G01*
Y13600D02*
G03*
X105400Y4100I9500J-0D01*
G01*
X180900Y4100D02*
G03*
X190400Y13600I0J9500D01*
G01*
X31032Y210D02*
X514200Y244D01*
X190400Y13600D02*
Y54600D01*
X197300Y61500D02*
X296000Y61500D01*
X296200Y6500D02*
Y61500D01*
X295900Y6500D02*
X296200D01*
X294500D02*
X295900D01*
X197300D02*
X294500D01*
X197300D02*
Y61500D01*
X16Y31226D02*
Y242500D01*
X545016Y30800D02*
X545016Y242500D01*
X31000Y273516D02*
X514000D01*
X105400Y64100D02*
X180900D01*
X95900Y13600D02*
Y54600D01*
X105400Y4100D02*
X180900D01*
X3401Y249199D02*
Y244201D01*
X4401Y243201D01*
X6400D01*
X7400Y244201D01*
Y249199D01*
X9399Y243201D02*
X11399D01*
X10399D01*
Y249199D01*
X9399Y248199D01*
X237799Y36099D02*
X237299Y36599D01*
X236300D01*
X235800Y36099D01*
Y35599D01*
X236300Y35099D01*
X237299D01*
X237799Y34599D01*
Y34100D01*
X237299Y33600D01*
X236300D01*
X235800Y34100D01*
X238799Y32600D02*
Y35599D01*
X240299D01*
X240798Y35099D01*
Y34100D01*
X240299Y33600D01*
X238799D01*
X243298D02*
X242298D01*
X241798Y34100D01*
Y35099D01*
X242298Y35599D01*
X243298D01*
X243797Y35099D01*
Y34599D01*
X241798D01*
X245297Y35599D02*
X246297D01*
X246796Y35099D01*
Y33600D01*
X245297D01*
X244797Y34100D01*
X245297Y34599D01*
X246796D01*
X247796Y33600D02*
Y36599D01*
Y34599D02*
X249296Y35599D01*
X247796Y34599D02*
X249296Y33600D01*
X252295D02*
X251295D01*
X250795Y34100D01*
Y35099D01*
X251295Y35599D01*
X252295D01*
X252795Y35099D01*
Y34599D01*
X250795D01*
X253794Y35599D02*
Y33600D01*
Y34599D01*
X254294Y35099D01*
X254794Y35599D01*
X255294D01*
X23500Y33999D02*
X21501D01*
X22501D01*
Y29001D01*
X21501Y28001D01*
X20501D01*
X19502Y29001D01*
X29498Y28001D02*
X25500D01*
X29498Y32000D01*
Y32999D01*
X28499Y33999D01*
X26499D01*
X25500Y32999D01*
X69067Y37900D02*
Y39900D01*
X70067D01*
X70400Y39566D01*
Y38900D01*
X70067Y38567D01*
X69067D01*
X69734D02*
X70400Y37900D01*
X71066D02*
X71733D01*
X71400D01*
Y39900D01*
X71066Y39566D01*
X73567Y33300D02*
Y31300D01*
X74567D01*
X74900Y31634D01*
Y32967D01*
X74567Y33300D01*
X73567D01*
X75566Y31300D02*
X76233D01*
X75900D01*
Y33300D01*
X75566Y32967D01*
X116510Y32500D02*
Y34500D01*
X117510Y35499D01*
X118510Y34500D01*
Y32500D01*
Y34000D01*
X116510D01*
X121509Y35499D02*
Y32500D01*
X120009D01*
X119509Y33000D01*
Y34000D01*
X120009Y34500D01*
X121509D01*
X123008D02*
X124008D01*
X124508Y34000D01*
Y32500D01*
X123008D01*
X122508Y33000D01*
X123008Y33500D01*
X124508D01*
X126007Y32500D02*
Y34999D01*
Y34000D01*
X125507D01*
X126507D01*
X126007D01*
Y34999D01*
X126507Y35499D01*
X128007Y34500D02*
Y32500D01*
Y33500D01*
X128507Y34000D01*
X129006Y34500D01*
X129506D01*
X131006D02*
Y33000D01*
X131506Y32500D01*
X133005D01*
Y34500D01*
X134005Y32500D02*
X135004D01*
X134504D01*
Y34500D01*
X134005D01*
X137004Y34999D02*
Y34500D01*
X136504D01*
X137504D01*
X137004D01*
Y33000D01*
X137504Y32500D01*
X142002D02*
Y35499D01*
X143002Y34500D01*
X144001Y35499D01*
Y32500D01*
X145501D02*
X146501D01*
X147001Y33000D01*
Y34000D01*
X146501Y34500D01*
X145501D01*
X145001Y34000D01*
Y33000D01*
X145501Y32500D01*
X148000D02*
Y34500D01*
X149500D01*
X149999Y34000D01*
Y32500D01*
X151499D02*
X152499D01*
X152998Y33000D01*
Y34000D01*
X152499Y34500D01*
X151499D01*
X150999Y34000D01*
Y33000D01*
X151499Y32500D01*
X153998Y34000D02*
X155998D01*
X156997Y32500D02*
Y34500D01*
X157997Y35499D01*
X158997Y34500D01*
Y32500D01*
Y34000D01*
X156997D01*
X159996Y32500D02*
Y34500D01*
X160496D01*
X160996Y34000D01*
Y32500D01*
Y34000D01*
X161496Y34500D01*
X161996Y34000D01*
Y32500D01*
X162995Y31501D02*
Y34500D01*
X164495D01*
X164995Y34000D01*
Y33000D01*
X164495Y32500D01*
X162995D01*
X165994D02*
X166994D01*
X166494D01*
Y35499D01*
X165994D01*
X168493Y32500D02*
X169493D01*
X168993D01*
Y34500D01*
X168493D01*
X171493Y32500D02*
Y34999D01*
Y34000D01*
X170993D01*
X171992D01*
X171493D01*
Y34999D01*
X171992Y35499D01*
X173492Y32500D02*
X174492D01*
X173992D01*
Y34500D01*
X173492D01*
X177491Y32500D02*
X176491D01*
X175991Y33000D01*
Y34000D01*
X176491Y34500D01*
X177491D01*
X177990Y34000D01*
Y33500D01*
X175991D01*
X178990Y34500D02*
Y32500D01*
Y33500D01*
X179490Y34000D01*
X179990Y34500D01*
X180490D01*
X450502Y255983D02*
Y251984D01*
Y253317D01*
X453168Y255983D01*
X451168Y253983D01*
X453168Y251984D01*
X454501D02*
X455834D01*
X455167D01*
Y254650D01*
X454501D01*
X457833Y251984D02*
X459166D01*
X458499D01*
Y255983D01*
X457833D01*
X461165Y251984D02*
X462498D01*
X461832D01*
Y255983D01*
X461165D01*
X426334Y73833D02*
X425667Y74499D01*
X424334D01*
X423668Y73833D01*
Y73166D01*
X424334Y72500D01*
X425667D01*
X426334Y71834D01*
Y71167D01*
X425667Y70501D01*
X424334D01*
X423668Y71167D01*
X429666Y70501D02*
Y74499D01*
X427667Y72500D01*
X430332D01*
X519834Y74333D02*
X519167Y74999D01*
X517834D01*
X517168Y74333D01*
Y73666D01*
X517834Y73000D01*
X519167D01*
X519834Y72334D01*
Y71667D01*
X519167Y71001D01*
X517834D01*
X517168Y71667D01*
X521167Y74333D02*
X521833Y74999D01*
X523166D01*
X523832Y74333D01*
Y73666D01*
X523166Y73000D01*
X522499D01*
X523166D01*
X523832Y72334D01*
Y71667D01*
X523166Y71001D01*
X521833D01*
X521167Y71667D01*
X519334Y192833D02*
X518667Y193499D01*
X517334D01*
X516668Y192833D01*
Y192166D01*
X517334Y191500D01*
X518667D01*
X519334Y190833D01*
Y190167D01*
X518667Y189501D01*
X517334D01*
X516668Y190167D01*
X523332Y189501D02*
X520667D01*
X523332Y192166D01*
Y192833D01*
X522666Y193499D01*
X521333D01*
X520667Y192833D01*
X426500D02*
X425834Y193499D01*
X424501D01*
X423834Y192833D01*
Y192166D01*
X424501Y191500D01*
X425834D01*
X426500Y190833D01*
Y190167D01*
X425834Y189501D01*
X424501D01*
X423834Y190167D01*
X427833Y189501D02*
X429166D01*
X428499D01*
Y193499D01*
X427833Y192833D01*
X20500Y97999D02*
X18501D01*
X19500D01*
Y93001D01*
X18501Y92001D01*
X17501D01*
X16501Y93001D01*
X22499Y92001D02*
X24499D01*
X23499D01*
Y97999D01*
X22499Y96999D01*
D13*
X1165Y208501D02*
Y234091D01*
X-3953Y208501D02*
X1165D01*
X-3953Y177005D02*
Y208501D01*
Y177005D02*
X1165D01*
Y151414D02*
Y177005D01*
X201953Y207162D02*
Y234091D01*
Y151414D02*
Y178343D01*
X200969Y234091D02*
X201953D01*
X1165D02*
X2150D01*
X200969Y151414D02*
X201953D01*
X1165D02*
X2150D01*
X54328Y43789D02*
Y47726D01*
X52360Y45757D02*
X56297D01*
X54328Y63474D02*
Y67411D01*
X29919Y36112D02*
Y75088D01*
X11021Y36112D02*
X29919D01*
X11021Y29419D02*
Y36112D01*
X1179Y29419D02*
X11021D01*
X1179D02*
Y36112D01*
X-5514D02*
X1179D01*
X-5514D02*
Y75088D01*
X1179D01*
Y81781D01*
X11021D01*
Y75088D02*
Y81781D01*
Y75088D02*
X29919D01*
X61488Y34861D02*
X62512D01*
X61488Y29939D02*
X62512D01*
X531622Y77178D02*
Y85052D01*
X484378Y77178D02*
X531622D01*
X484378D02*
Y85052D01*
X531622Y116548D02*
Y124422D01*
X484378D02*
X531622D01*
X484378Y116548D02*
Y124422D01*
X415378Y116548D02*
Y124422D01*
X462622D01*
Y116548D02*
Y124422D01*
X415378Y77178D02*
Y85052D01*
Y77178D02*
X462622D01*
Y85052D01*
X450378Y241948D02*
Y249822D01*
X497622D01*
Y241948D02*
Y249822D01*
X450378Y202578D02*
Y210452D01*
Y202578D02*
X497622D01*
Y210452D01*
X415378Y179248D02*
Y187122D01*
X462622D01*
Y179248D02*
Y187122D01*
X415378Y139878D02*
Y147752D01*
Y139878D02*
X462622D01*
Y147752D01*
X484378Y179248D02*
Y187122D01*
X531622D01*
Y179248D02*
Y187122D01*
X484378Y139878D02*
Y147752D01*
Y139878D02*
X531622D01*
Y147752D01*
X-5606Y100528D02*
Y132076D01*
X24709Y100528D02*
Y132076D01*
X-5606Y100528D02*
X24709D01*
X-5606Y132076D02*
X24709D01*
X102894Y58413D02*
X112106D01*
Y9987D02*
Y58413D01*
X102894Y9987D02*
X112106D01*
X102894D02*
Y58413D01*
D14*
X301300Y74799D02*
X303299D01*
X302300D01*
Y71800D01*
X306298Y74799D02*
X304299D01*
Y73299D01*
X305299D01*
X304299D01*
Y71800D01*
X307298Y74799D02*
X309297D01*
X308298D01*
Y71800D01*
X313296Y74299D02*
X313796Y74799D01*
X314796D01*
X315296Y74299D01*
Y73799D01*
X314796Y73299D01*
X314296D01*
X314796D01*
X315296Y72800D01*
Y72300D01*
X314796Y71800D01*
X313796D01*
X313296Y72300D01*
X318295Y71800D02*
X316295D01*
X318295Y73799D01*
Y74299D01*
X317795Y74799D01*
X316795D01*
X316295Y74299D01*
X319294D02*
X319794Y74799D01*
X320794D01*
X321293Y74299D01*
Y72300D01*
X320794Y71800D01*
X319794D01*
X319294Y72300D01*
Y74299D01*
X322293Y73799D02*
X324293Y71800D01*
X323293Y72800D01*
X324293Y73799D01*
X322293Y71800D01*
X327292D02*
X325292D01*
X327292Y73799D01*
Y74299D01*
X326792Y74799D01*
X325792D01*
X325292Y74299D01*
X329791Y71800D02*
Y74799D01*
X328291Y73299D01*
X330291D01*
X331290Y74299D02*
X331790Y74799D01*
X332790D01*
X333290Y74299D01*
Y72300D01*
X332790Y71800D01*
X331790D01*
X331290Y72300D01*
Y74299D01*
X334789Y71300D02*
X335289Y71800D01*
Y72300D01*
X334789D01*
Y71800D01*
X335289D01*
X334789Y71300D01*
X334289Y70800D01*
X342287Y71800D02*
X340287D01*
X342287Y73799D01*
Y74299D01*
X341787Y74799D01*
X340787D01*
X340287Y74299D01*
X343286Y71800D02*
Y72300D01*
X343786D01*
Y71800D01*
X343286D01*
X345786Y74299D02*
X346285Y74799D01*
X347285D01*
X347785Y74299D01*
Y73799D01*
X347285Y73299D01*
X347785Y72800D01*
Y72300D01*
X347285Y71800D01*
X346285D01*
X345786Y72300D01*
Y72800D01*
X346285Y73299D01*
X345786Y73799D01*
Y74299D01*
X346285Y73299D02*
X347285D01*
X349285Y75299D02*
Y74299D01*
X348785Y73799D01*
X351284Y75299D02*
Y74299D01*
X350784Y73799D01*
M02*
