M48
;Layer_Color=9474304
;FILE_FORMAT=2:5
INCH
;TYPE=PLATED
T01F00S00C0.03000
T02F00S00C0.03150
T03F00S00C0.03504
T04F00S00C0.03937
T05F00S00C0.04921
T06F00S00C0.06693
T07F00S00C0.08661
T08F00S00C0.14142
%
T01
X0126500Y0391700
X0176500Y0392200
X0226500Y0392700
X0276500Y0392200
X0282000Y0467700
X0309800Y0442500
X0233500Y0492200
X0179500Y0491200
X0134000Y0492700
T02
X0119000Y0350602
Y0358500
Y0366402
X0488200Y0366200
Y0376200
Y0386200
Y0396200
Y0406200
Y0416200
Y0426200
Y0436200
Y0446200
Y0456200
Y0466200
Y0356200
Y0346200
Y0476200
T03
X0207500Y0256400
Y0266400
Y0276400
Y0286400
Y0296400
T04
X0106100Y0276147
Y0319454
T05
X0514394Y0333157
Y0352842
Y0395858
Y0415543
X0563606
Y0395858
X0583394
Y0415543
X0598606Y0458558
X0549394
X0563606Y0352842
Y0333157
X0583394
Y0352842
X0632606
Y0333157
Y0395858
Y0415543
X0598606Y0478242
X0549394
T06
X0145470Y0287958
Y0307643
T07
X0280500Y0255400
Y0297400
T08
X0622516Y0261200
X0122500
X0622516Y0497200
X0122500
M30
