G04*
G04 #@! TF.GenerationSoftware,Altium Limited,Altium Designer,26.3.0 (6)*
G04*
G04 Layer_Color=16711935*
%FSLAX25Y25*%
%MOIN*%
G70*
G04*
G04 #@! TF.SameCoordinates,A6865A6D-A90F-43E1-8AFD-29BB33FF8EDF*
G04*
G04*
G04 #@! TF.FilePolarity,Negative*
G04*
G01*
G75*
%ADD20R,0.08182X0.08182*%
%ADD21C,0.08182*%
%ADD22C,0.08083*%
G04:AMPARAMS|DCode=23|XSize=67.06mil|YSize=126.11mil|CornerRadius=33.53mil|HoleSize=0mil|Usage=FLASHONLY|Rotation=90.000|XOffset=0mil|YOffset=0mil|HoleType=Round|Shape=RoundedRectangle|*
%AMROUNDEDRECTD23*
21,1,0.06706,0.05906,0,0,90.0*
21,1,0.00000,0.12611,0,0,90.0*
1,1,0.06706,0.02953,0.00000*
1,1,0.06706,0.02953,0.00000*
1,1,0.06706,-0.02953,0.00000*
1,1,0.06706,-0.02953,0.00000*
%
%ADD23ROUNDEDRECTD23*%
%ADD24C,0.06800*%
%ADD25C,0.08800*%
%ADD26C,0.06304*%
%ADD27C,0.05328*%
%ADD28C,0.10839*%
%ADD29R,0.05328X0.05328*%
%ADD30C,0.06737*%
%ADD31R,0.10839X0.10839*%
%ADD32R,0.06304X0.06304*%
%ADD33C,0.12611*%
D20*
X532606Y90957D02*
D03*
X463606D02*
D03*
X498606Y216357D02*
D03*
X463606Y153657D02*
D03*
X532606D02*
D03*
D21*
Y110643D02*
D03*
X483394Y90957D02*
D03*
Y110643D02*
D03*
X414394D02*
D03*
Y90957D02*
D03*
X463606Y110643D02*
D03*
X449394Y236042D02*
D03*
Y216357D02*
D03*
X498606Y236042D02*
D03*
X414394Y173343D02*
D03*
Y153657D02*
D03*
X463606Y173343D02*
D03*
X483394D02*
D03*
Y153657D02*
D03*
X532606Y173343D02*
D03*
D22*
X508000Y83083D02*
D03*
Y118517D02*
D03*
X439000D02*
D03*
Y83083D02*
D03*
X474000Y243917D02*
D03*
Y208484D02*
D03*
X439000Y181217D02*
D03*
Y145783D02*
D03*
X508000Y181217D02*
D03*
Y145783D02*
D03*
D23*
X388200Y234000D02*
D03*
Y224000D02*
D03*
Y214000D02*
D03*
Y204000D02*
D03*
Y194000D02*
D03*
Y184000D02*
D03*
Y174000D02*
D03*
Y164000D02*
D03*
Y154000D02*
D03*
Y144000D02*
D03*
Y134000D02*
D03*
Y124000D02*
D03*
Y104000D02*
D03*
Y114000D02*
D03*
D24*
X68200Y83000D02*
D03*
Y256000D02*
D03*
X369700Y81500D02*
D03*
Y256500D02*
D03*
X22500Y255000D02*
D03*
X522516Y19000D02*
D03*
X22500D02*
D03*
X522516Y255000D02*
D03*
X209800Y200300D02*
D03*
X182000Y225500D02*
D03*
X133500Y250000D02*
D03*
X176500Y150000D02*
D03*
X79500Y249000D02*
D03*
X34000Y250500D02*
D03*
X126500Y150500D02*
D03*
X76500Y150000D02*
D03*
X26500Y149500D02*
D03*
D25*
X290000Y55500D02*
D03*
Y12500D02*
D03*
X203000D02*
D03*
Y55500D02*
D03*
D26*
X107500Y34200D02*
D03*
Y14200D02*
D03*
Y44200D02*
D03*
Y24200D02*
D03*
D27*
X19000Y116300D02*
D03*
Y108402D02*
D03*
D28*
X45470Y65443D02*
D03*
D29*
X19000Y124202D02*
D03*
D30*
X6100Y33946D02*
D03*
Y77254D02*
D03*
D31*
X45470Y45757D02*
D03*
D32*
X107500Y54200D02*
D03*
D33*
X180500Y13200D02*
D03*
Y55200D02*
D03*
M02*
