G04*
G04 #@! TF.GenerationSoftware,Altium Limited,Altium Designer,26.3.0 (6)*
G04*
G04 Layer_Physical_Order=2*
G04 Layer_Color=16711680*
%FSLAX25Y25*%
%MOIN*%
G70*
G04*
G04 #@! TF.SameCoordinates,A6865A6D-A90F-43E1-8AFD-29BB33FF8EDF*
G04*
G04*
G04 #@! TF.FilePolarity,Positive*
G04*
G01*
G75*
%ADD35R,0.07382X0.07382*%
%ADD36C,0.07382*%
%ADD37C,0.07284*%
G04:AMPARAMS|DCode=38|XSize=59.06mil|YSize=118.11mil|CornerRadius=29.53mil|HoleSize=0mil|Usage=FLASHONLY|Rotation=90.000|XOffset=0mil|YOffset=0mil|HoleType=Round|Shape=RoundedRectangle|*
%AMROUNDEDRECTD38*
21,1,0.05906,0.05906,0,0,90.0*
21,1,0.00000,0.11811,0,0,90.0*
1,1,0.05906,0.02953,0.00000*
1,1,0.05906,0.02953,0.00000*
1,1,0.05906,-0.02953,0.00000*
1,1,0.05906,-0.02953,0.00000*
%
%ADD38ROUNDEDRECTD38*%
%ADD39C,0.06000*%
%ADD40C,0.08000*%
%ADD41C,0.05504*%
%ADD42C,0.04528*%
%ADD43C,0.10039*%
%ADD44R,0.04528X0.04528*%
%ADD45C,0.05937*%
%ADD46R,0.10039X0.10039*%
%ADD47R,0.05504X0.05504*%
%ADD48C,0.11811*%
G36*
X518556Y273217D02*
X521545Y272623D01*
X524462Y271738D01*
X527277Y270572D01*
X529965Y269135D01*
X532499Y267442D01*
X534854Y265509D01*
X537009Y263354D01*
X538942Y260999D01*
X540635Y258465D01*
X542072Y255777D01*
X543238Y252962D01*
X544123Y250045D01*
X544717Y247057D01*
X545016Y244024D01*
Y242500D01*
X545016D01*
X545016Y31260D01*
X545016D01*
X545016Y31051D01*
Y29737D01*
X544717Y26704D01*
X544123Y23715D01*
X543238Y20799D01*
X542072Y17983D01*
X540635Y15295D01*
X538942Y12762D01*
X537009Y10406D01*
X534854Y8251D01*
X532499Y6318D01*
X529965Y4625D01*
X527277Y3188D01*
X524462Y2022D01*
X521545Y1137D01*
X518556Y543D01*
X515524Y244D01*
X514200D01*
Y244D01*
X514191Y244D01*
X31032Y210D01*
X29509D01*
X26476Y508D01*
X23487Y1103D01*
X20571Y1988D01*
X17755Y3154D01*
X15067Y4590D01*
X12534Y6284D01*
X10178Y8217D01*
X8023Y10372D01*
X6090Y12727D01*
X4397Y15261D01*
X2960Y17949D01*
X1794Y20764D01*
X909Y23681D01*
X315Y26669D01*
X16Y29702D01*
Y31226D01*
Y242500D01*
X16D01*
X-16Y242532D01*
Y244024D01*
X283Y247057D01*
X877Y250045D01*
X1762Y252962D01*
X2928Y255777D01*
X4364Y258465D01*
X6058Y260999D01*
X7991Y263354D01*
X10146Y265509D01*
X12501Y267442D01*
X15035Y269135D01*
X17723Y270572D01*
X20538Y271738D01*
X23455Y272623D01*
X26443Y273217D01*
X29476Y273516D01*
X31000D01*
X514000Y273516D01*
X515524Y273516D01*
X518556Y273217D01*
D02*
G37*
%LPC*%
G36*
X370495Y264571D02*
X370200D01*
Y257000D01*
X377771D01*
Y257295D01*
X377461Y258854D01*
X376852Y260323D01*
X375969Y261645D01*
X374845Y262769D01*
X373523Y263652D01*
X372054Y264261D01*
X370495Y264571D01*
D02*
G37*
G36*
X369200D02*
X368905D01*
X367346Y264261D01*
X365877Y263652D01*
X364555Y262769D01*
X363431Y261645D01*
X362548Y260323D01*
X361939Y258854D01*
X361629Y257295D01*
Y257000D01*
X369200D01*
Y264571D01*
D02*
G37*
G36*
X68995Y264071D02*
X68700D01*
Y256500D01*
X76271D01*
Y256795D01*
X75961Y258354D01*
X75352Y259823D01*
X74469Y261145D01*
X73345Y262269D01*
X72023Y263152D01*
X70554Y263761D01*
X68995Y264071D01*
D02*
G37*
G36*
X67700D02*
X67405D01*
X65846Y263761D01*
X64377Y263152D01*
X63055Y262269D01*
X61931Y261145D01*
X61048Y259823D01*
X60439Y258354D01*
X60129Y256795D01*
Y256500D01*
X67700D01*
Y264071D01*
D02*
G37*
G36*
X34527Y254500D02*
X34500D01*
Y251000D01*
X38000D01*
Y251027D01*
X37727Y252044D01*
X37201Y252956D01*
X36456Y253701D01*
X35544Y254227D01*
X34527Y254500D01*
D02*
G37*
G36*
X134027Y254000D02*
X134000D01*
Y250500D01*
X137500D01*
Y250527D01*
X137227Y251544D01*
X136701Y252456D01*
X135956Y253201D01*
X135044Y253727D01*
X134027Y254000D01*
D02*
G37*
G36*
X133000D02*
X132973D01*
X131956Y253727D01*
X131044Y253201D01*
X130299Y252456D01*
X129773Y251544D01*
X129500Y250527D01*
Y250500D01*
X133000D01*
Y254000D01*
D02*
G37*
G36*
X80027Y253000D02*
X80000D01*
Y249500D01*
X83500D01*
Y249527D01*
X83227Y250544D01*
X82701Y251456D01*
X81956Y252201D01*
X81044Y252727D01*
X80027Y253000D01*
D02*
G37*
G36*
X79000D02*
X78973D01*
X77956Y252727D01*
X77044Y252201D01*
X76299Y251456D01*
X75773Y250544D01*
X75500Y249527D01*
Y249500D01*
X79000D01*
Y253000D01*
D02*
G37*
G36*
X377771Y256000D02*
X370200D01*
Y248429D01*
X370495D01*
X372054Y248739D01*
X373523Y249348D01*
X374845Y250231D01*
X375969Y251355D01*
X376852Y252677D01*
X377461Y254146D01*
X377771Y255705D01*
Y256000D01*
D02*
G37*
G36*
X369200D02*
X361629D01*
Y255705D01*
X361939Y254146D01*
X362548Y252677D01*
X363431Y251355D01*
X364555Y250231D01*
X365877Y249348D01*
X367346Y248739D01*
X368905Y248429D01*
X369200D01*
Y256000D01*
D02*
G37*
G36*
X76271Y255500D02*
X68700D01*
Y247929D01*
X68995D01*
X70554Y248239D01*
X72023Y248848D01*
X73345Y249731D01*
X74469Y250855D01*
X75352Y252177D01*
X75961Y253646D01*
X76271Y255205D01*
Y255500D01*
D02*
G37*
G36*
X67700D02*
X60129D01*
Y255205D01*
X60439Y253646D01*
X61048Y252177D01*
X61931Y250855D01*
X63055Y249731D01*
X64377Y248848D01*
X65846Y248239D01*
X67405Y247929D01*
X67700D01*
Y255500D01*
D02*
G37*
G36*
X523311Y263071D02*
X521721D01*
X520162Y262761D01*
X518693Y262152D01*
X517371Y261269D01*
X516247Y260145D01*
X515364Y258823D01*
X514755Y257354D01*
X514445Y255795D01*
Y254205D01*
X514755Y252646D01*
X515364Y251177D01*
X516247Y249855D01*
X517371Y248731D01*
X518693Y247848D01*
X520162Y247239D01*
X521721Y246929D01*
X523311D01*
X524870Y247239D01*
X526339Y247848D01*
X527661Y248731D01*
X528785Y249855D01*
X529668Y251177D01*
X530277Y252646D01*
X530587Y254205D01*
Y255795D01*
X530277Y257354D01*
X529668Y258823D01*
X528785Y260145D01*
X527661Y261269D01*
X526339Y262152D01*
X524870Y262761D01*
X523311Y263071D01*
D02*
G37*
G36*
X38000Y250000D02*
X34500D01*
Y246500D01*
X34527D01*
X35544Y246773D01*
X36456Y247299D01*
X37201Y248044D01*
X37727Y248956D01*
X38000Y249973D01*
Y250000D01*
D02*
G37*
G36*
X23295Y263071D02*
X21705D01*
X20146Y262761D01*
X18677Y262152D01*
X17355Y261269D01*
X16231Y260145D01*
X15348Y258823D01*
X14739Y257354D01*
X14429Y255795D01*
Y254205D01*
X14739Y252646D01*
X15348Y251177D01*
X16231Y249855D01*
X17355Y248731D01*
X18677Y247848D01*
X20146Y247239D01*
X21705Y246929D01*
X23295D01*
X24854Y247239D01*
X26323Y247848D01*
X27645Y248731D01*
X28769Y249855D01*
X29000Y250201D01*
X29841Y250010D01*
X30015Y249919D01*
X30273Y248956D01*
X30799Y248044D01*
X31544Y247299D01*
X32456Y246773D01*
X33473Y246500D01*
X33500D01*
Y250500D01*
Y254500D01*
X33473D01*
X32456Y254227D01*
X31544Y253701D01*
X31477Y253634D01*
X30555Y254126D01*
X30571Y254205D01*
Y255795D01*
X30261Y257354D01*
X29652Y258823D01*
X28769Y260145D01*
X27645Y261269D01*
X26323Y262152D01*
X24854Y262761D01*
X23295Y263071D01*
D02*
G37*
G36*
X137500Y249500D02*
X134000D01*
Y246000D01*
X134027D01*
X135044Y246273D01*
X135956Y246799D01*
X136701Y247544D01*
X137227Y248456D01*
X137500Y249473D01*
Y249500D01*
D02*
G37*
G36*
X133000D02*
X129500D01*
Y249473D01*
X129773Y248456D01*
X130299Y247544D01*
X131044Y246799D01*
X131956Y246273D01*
X132973Y246000D01*
X133000D01*
Y249500D01*
D02*
G37*
G36*
X83500Y248500D02*
X80000D01*
Y245000D01*
X80027D01*
X81044Y245273D01*
X81956Y245799D01*
X82701Y246544D01*
X83227Y247456D01*
X83500Y248473D01*
Y248500D01*
D02*
G37*
G36*
X79000D02*
X75500D01*
Y248473D01*
X75773Y247456D01*
X76299Y246544D01*
X77044Y245799D01*
X77956Y245273D01*
X78973Y245000D01*
X79000D01*
Y248500D01*
D02*
G37*
G36*
X474611Y248558D02*
X473389D01*
X472208Y248242D01*
X471150Y247631D01*
X470286Y246767D01*
X469675Y245708D01*
X469358Y244528D01*
Y243305D01*
X469675Y242125D01*
X470286Y241066D01*
X471150Y240202D01*
X472208Y239591D01*
X473389Y239275D01*
X474611D01*
X475792Y239591D01*
X476850Y240202D01*
X477714Y241066D01*
X478325Y242125D01*
X478642Y243305D01*
Y244528D01*
X478325Y245708D01*
X477714Y246767D01*
X476850Y247631D01*
X475792Y248242D01*
X474611Y248558D01*
D02*
G37*
G36*
X499224Y240734D02*
X499106D01*
Y236543D01*
X503297D01*
Y236660D01*
X502978Y237853D01*
X502360Y238923D01*
X501487Y239796D01*
X500417Y240414D01*
X499224Y240734D01*
D02*
G37*
G36*
X450011D02*
X449894D01*
Y236543D01*
X454085D01*
Y236660D01*
X453765Y237853D01*
X453147Y238923D01*
X452274Y239796D01*
X451204Y240414D01*
X450011Y240734D01*
D02*
G37*
G36*
X448894D02*
X448776D01*
X447583Y240414D01*
X446513Y239796D01*
X445640Y238923D01*
X445022Y237853D01*
X444703Y236660D01*
Y236543D01*
X448894D01*
Y240734D01*
D02*
G37*
G36*
X498106D02*
X497989D01*
X496796Y240414D01*
X495726Y239796D01*
X494853Y238923D01*
X494235Y237853D01*
X493915Y236660D01*
Y236543D01*
X498106D01*
Y240734D01*
D02*
G37*
G36*
X503297Y235542D02*
X499106D01*
Y231352D01*
X499224D01*
X500417Y231671D01*
X501487Y232289D01*
X502360Y233162D01*
X502978Y234232D01*
X503297Y235425D01*
Y235542D01*
D02*
G37*
G36*
X498106D02*
X493915D01*
Y235425D01*
X494235Y234232D01*
X494853Y233162D01*
X495726Y232289D01*
X496796Y231671D01*
X497989Y231352D01*
X498106D01*
Y235542D01*
D02*
G37*
G36*
X454085D02*
X449894D01*
Y231352D01*
X450011D01*
X451204Y231671D01*
X452274Y232289D01*
X453147Y233162D01*
X453765Y234232D01*
X454085Y235425D01*
Y235542D01*
D02*
G37*
G36*
X448894D02*
X444703D01*
Y235425D01*
X445022Y234232D01*
X445640Y233162D01*
X446513Y232289D01*
X447583Y231671D01*
X448776Y231352D01*
X448894D01*
Y235542D01*
D02*
G37*
G36*
X391153Y237987D02*
X385247D01*
X384215Y237851D01*
X383254Y237453D01*
X382428Y236819D01*
X381795Y235993D01*
X381396Y235032D01*
X381260Y234000D01*
X381396Y232968D01*
X381795Y232007D01*
X382428Y231181D01*
X383254Y230547D01*
X384215Y230149D01*
X385247Y230013D01*
X391153D01*
X392185Y230149D01*
X393146Y230547D01*
X393972Y231181D01*
X394605Y232007D01*
X395004Y232968D01*
X395140Y234000D01*
X395004Y235032D01*
X394605Y235993D01*
X393972Y236819D01*
X393146Y237453D01*
X392185Y237851D01*
X391153Y237987D01*
D02*
G37*
G36*
X182527Y229500D02*
X182500D01*
Y226000D01*
X186000D01*
Y226027D01*
X185727Y227044D01*
X185201Y227956D01*
X184456Y228701D01*
X183544Y229227D01*
X182527Y229500D01*
D02*
G37*
G36*
X181500D02*
X181473D01*
X180456Y229227D01*
X179544Y228701D01*
X178799Y227956D01*
X178273Y227044D01*
X178000Y226027D01*
Y226000D01*
X181500D01*
Y229500D01*
D02*
G37*
G36*
X186000Y225000D02*
X182500D01*
Y221500D01*
X182527D01*
X183544Y221773D01*
X184456Y222299D01*
X185201Y223044D01*
X185727Y223956D01*
X186000Y224973D01*
Y225000D01*
D02*
G37*
G36*
X181500D02*
X178000D01*
Y224973D01*
X178273Y223956D01*
X178799Y223044D01*
X179544Y222299D01*
X180456Y221773D01*
X181473Y221500D01*
X181500D01*
Y225000D01*
D02*
G37*
G36*
X391153Y227987D02*
X385247D01*
X384215Y227851D01*
X383254Y227453D01*
X382428Y226819D01*
X381795Y225993D01*
X381396Y225032D01*
X381260Y224000D01*
X381396Y222968D01*
X381795Y222007D01*
X382428Y221181D01*
X383254Y220547D01*
X384215Y220149D01*
X385247Y220013D01*
X391153D01*
X392185Y220149D01*
X393146Y220547D01*
X393972Y221181D01*
X394605Y222007D01*
X395004Y222968D01*
X395140Y224000D01*
X395004Y225032D01*
X394605Y225993D01*
X393972Y226819D01*
X393146Y227453D01*
X392185Y227851D01*
X391153Y227987D01*
D02*
G37*
G36*
X503297Y221048D02*
X493915D01*
Y211666D01*
X503297D01*
Y221048D01*
D02*
G37*
G36*
X450011D02*
X448776D01*
X447583Y220729D01*
X446513Y220111D01*
X445640Y219238D01*
X445022Y218168D01*
X444703Y216975D01*
Y215740D01*
X445022Y214547D01*
X445640Y213477D01*
X446513Y212604D01*
X447583Y211986D01*
X448776Y211666D01*
X450011D01*
X451204Y211986D01*
X452274Y212604D01*
X453147Y213477D01*
X453765Y214547D01*
X454085Y215740D01*
Y216975D01*
X453765Y218168D01*
X453147Y219238D01*
X452274Y220111D01*
X451204Y220729D01*
X450011Y221048D01*
D02*
G37*
G36*
X391153Y217987D02*
X385247D01*
X384215Y217851D01*
X383254Y217453D01*
X382428Y216819D01*
X381795Y215993D01*
X381396Y215032D01*
X381260Y214000D01*
X381396Y212968D01*
X381795Y212007D01*
X382428Y211181D01*
X383254Y210547D01*
X384215Y210149D01*
X385247Y210013D01*
X391153D01*
X392185Y210149D01*
X393146Y210547D01*
X393972Y211181D01*
X394605Y212007D01*
X395004Y212968D01*
X395140Y214000D01*
X395004Y215032D01*
X394605Y215993D01*
X393972Y216819D01*
X393146Y217453D01*
X392185Y217851D01*
X391153Y217987D01*
D02*
G37*
G36*
X474611Y213125D02*
X473389D01*
X472208Y212809D01*
X471150Y212198D01*
X470286Y211334D01*
X469675Y210275D01*
X469358Y209095D01*
Y207872D01*
X469675Y206692D01*
X470286Y205633D01*
X471150Y204769D01*
X472208Y204158D01*
X473389Y203842D01*
X474611D01*
X475792Y204158D01*
X476850Y204769D01*
X477714Y205633D01*
X478325Y206692D01*
X478642Y207872D01*
Y209095D01*
X478325Y210275D01*
X477714Y211334D01*
X476850Y212198D01*
X475792Y212809D01*
X474611Y213125D01*
D02*
G37*
G36*
X210327Y204300D02*
X210300D01*
Y200800D01*
X213800D01*
Y200827D01*
X213527Y201844D01*
X213001Y202756D01*
X212256Y203501D01*
X211344Y204027D01*
X210327Y204300D01*
D02*
G37*
G36*
X209300D02*
X209273D01*
X208256Y204027D01*
X207344Y203501D01*
X206599Y202756D01*
X206073Y201844D01*
X205800Y200827D01*
Y200800D01*
X209300D01*
Y204300D01*
D02*
G37*
G36*
X391153Y207987D02*
X385247D01*
X384215Y207851D01*
X383254Y207453D01*
X382428Y206819D01*
X381795Y205993D01*
X381396Y205032D01*
X381260Y204000D01*
X381396Y202968D01*
X381795Y202007D01*
X382428Y201181D01*
X383254Y200547D01*
X384215Y200149D01*
X385247Y200013D01*
X391153D01*
X392185Y200149D01*
X393146Y200547D01*
X393972Y201181D01*
X394605Y202007D01*
X395004Y202968D01*
X395140Y204000D01*
X395004Y205032D01*
X394605Y205993D01*
X393972Y206819D01*
X393146Y207453D01*
X392185Y207851D01*
X391153Y207987D01*
D02*
G37*
G36*
X213800Y199800D02*
X210300D01*
Y196300D01*
X210327D01*
X211344Y196573D01*
X212256Y197099D01*
X213001Y197844D01*
X213527Y198756D01*
X213800Y199773D01*
Y199800D01*
D02*
G37*
G36*
X209300D02*
X205800D01*
Y199773D01*
X206073Y198756D01*
X206599Y197844D01*
X207344Y197099D01*
X208256Y196573D01*
X209273Y196300D01*
X209300D01*
Y199800D01*
D02*
G37*
G36*
X391153Y197987D02*
X385247D01*
X384215Y197851D01*
X383254Y197453D01*
X382428Y196819D01*
X381795Y195993D01*
X381396Y195032D01*
X381260Y194000D01*
X381396Y192968D01*
X381795Y192007D01*
X382428Y191181D01*
X383254Y190547D01*
X384215Y190149D01*
X385247Y190013D01*
X391153D01*
X392185Y190149D01*
X393146Y190547D01*
X393972Y191181D01*
X394605Y192007D01*
X395004Y192968D01*
X395140Y194000D01*
X395004Y195032D01*
X394605Y195993D01*
X393972Y196819D01*
X393146Y197453D01*
X392185Y197851D01*
X391153Y197987D01*
D02*
G37*
G36*
Y187987D02*
X385247D01*
X384215Y187851D01*
X383254Y187453D01*
X382428Y186819D01*
X381795Y185993D01*
X381396Y185032D01*
X381260Y184000D01*
X381396Y182968D01*
X381795Y182007D01*
X382428Y181181D01*
X383254Y180547D01*
X384215Y180149D01*
X385247Y180013D01*
X391153D01*
X392185Y180149D01*
X393146Y180547D01*
X393972Y181181D01*
X394605Y182007D01*
X395004Y182968D01*
X395140Y184000D01*
X395004Y185032D01*
X394605Y185993D01*
X393972Y186819D01*
X393146Y187453D01*
X392185Y187851D01*
X391153Y187987D01*
D02*
G37*
G36*
X508611Y185858D02*
X507389D01*
X506208Y185542D01*
X505150Y184931D01*
X504286Y184067D01*
X503675Y183008D01*
X503358Y181828D01*
Y180605D01*
X503675Y179425D01*
X504286Y178366D01*
X505150Y177502D01*
X506208Y176891D01*
X507389Y176575D01*
X508611D01*
X509792Y176891D01*
X510850Y177502D01*
X511714Y178366D01*
X512325Y179425D01*
X512642Y180605D01*
Y181828D01*
X512325Y183008D01*
X511714Y184067D01*
X510850Y184931D01*
X509792Y185542D01*
X508611Y185858D01*
D02*
G37*
G36*
X439611D02*
X438389D01*
X437208Y185542D01*
X436150Y184931D01*
X435286Y184067D01*
X434675Y183008D01*
X434358Y181828D01*
Y180605D01*
X434675Y179425D01*
X435286Y178366D01*
X436150Y177502D01*
X437208Y176891D01*
X438389Y176575D01*
X439611D01*
X440792Y176891D01*
X441850Y177502D01*
X442714Y178366D01*
X443325Y179425D01*
X443642Y180605D01*
Y181828D01*
X443325Y183008D01*
X442714Y184067D01*
X441850Y184931D01*
X440792Y185542D01*
X439611Y185858D01*
D02*
G37*
G36*
X464224Y178033D02*
X464106D01*
Y173843D01*
X468297D01*
Y173960D01*
X467978Y175153D01*
X467360Y176223D01*
X466487Y177096D01*
X465417Y177714D01*
X464224Y178033D01*
D02*
G37*
G36*
X533224D02*
X533106D01*
Y173843D01*
X537297D01*
Y173960D01*
X536978Y175153D01*
X536360Y176223D01*
X535487Y177096D01*
X534417Y177714D01*
X533224Y178033D01*
D02*
G37*
G36*
X484011D02*
X483894D01*
Y173843D01*
X488085D01*
Y173960D01*
X487765Y175153D01*
X487147Y176223D01*
X486274Y177096D01*
X485204Y177714D01*
X484011Y178033D01*
D02*
G37*
G36*
X415011D02*
X414894D01*
Y173843D01*
X419085D01*
Y173960D01*
X418765Y175153D01*
X418147Y176223D01*
X417274Y177096D01*
X416204Y177714D01*
X415011Y178033D01*
D02*
G37*
G36*
X413894D02*
X413776D01*
X412583Y177714D01*
X411513Y177096D01*
X410640Y176223D01*
X410022Y175153D01*
X409703Y173960D01*
Y173843D01*
X413894D01*
Y178033D01*
D02*
G37*
G36*
X482894D02*
X482776D01*
X481583Y177714D01*
X480513Y177096D01*
X479640Y176223D01*
X479022Y175153D01*
X478703Y173960D01*
Y173843D01*
X482894D01*
Y178033D01*
D02*
G37*
G36*
X463106D02*
X462989D01*
X461796Y177714D01*
X460726Y177096D01*
X459853Y176223D01*
X459235Y175153D01*
X458915Y173960D01*
Y173843D01*
X463106D01*
Y178033D01*
D02*
G37*
G36*
X532106D02*
X531989D01*
X530796Y177714D01*
X529726Y177096D01*
X528853Y176223D01*
X528235Y175153D01*
X527915Y173960D01*
Y173843D01*
X532106D01*
Y178033D01*
D02*
G37*
G36*
X391153Y177987D02*
X385247D01*
X384215Y177851D01*
X383254Y177453D01*
X382428Y176819D01*
X381795Y175993D01*
X381396Y175032D01*
X381260Y174000D01*
X381396Y172968D01*
X381795Y172007D01*
X382428Y171181D01*
X383254Y170547D01*
X384215Y170149D01*
X385247Y170013D01*
X391153D01*
X392185Y170149D01*
X393146Y170547D01*
X393972Y171181D01*
X394605Y172007D01*
X395004Y172968D01*
X395140Y174000D01*
X395004Y175032D01*
X394605Y175993D01*
X393972Y176819D01*
X393146Y177453D01*
X392185Y177851D01*
X391153Y177987D01*
D02*
G37*
G36*
X537297Y172843D02*
X533106D01*
Y168652D01*
X533224D01*
X534417Y168971D01*
X535487Y169589D01*
X536360Y170462D01*
X536978Y171532D01*
X537297Y172725D01*
Y172843D01*
D02*
G37*
G36*
X532106D02*
X527915D01*
Y172725D01*
X528235Y171532D01*
X528853Y170462D01*
X529726Y169589D01*
X530796Y168971D01*
X531989Y168652D01*
X532106D01*
Y172843D01*
D02*
G37*
G36*
X488085D02*
X483894D01*
Y168652D01*
X484011D01*
X485204Y168971D01*
X486274Y169589D01*
X487147Y170462D01*
X487765Y171532D01*
X488085Y172725D01*
Y172843D01*
D02*
G37*
G36*
X482894D02*
X478703D01*
Y172725D01*
X479022Y171532D01*
X479640Y170462D01*
X480513Y169589D01*
X481583Y168971D01*
X482776Y168652D01*
X482894D01*
Y172843D01*
D02*
G37*
G36*
X468297D02*
X464106D01*
Y168652D01*
X464224D01*
X465417Y168971D01*
X466487Y169589D01*
X467360Y170462D01*
X467978Y171532D01*
X468297Y172725D01*
Y172843D01*
D02*
G37*
G36*
X463106D02*
X458915D01*
Y172725D01*
X459235Y171532D01*
X459853Y170462D01*
X460726Y169589D01*
X461796Y168971D01*
X462989Y168652D01*
X463106D01*
Y172843D01*
D02*
G37*
G36*
X419085D02*
X414894D01*
Y168652D01*
X415011D01*
X416204Y168971D01*
X417274Y169589D01*
X418147Y170462D01*
X418765Y171532D01*
X419085Y172725D01*
Y172843D01*
D02*
G37*
G36*
X413894D02*
X409703D01*
Y172725D01*
X410022Y171532D01*
X410640Y170462D01*
X411513Y169589D01*
X412583Y168971D01*
X413776Y168652D01*
X413894D01*
Y172843D01*
D02*
G37*
G36*
X391153Y167987D02*
X385247D01*
X384215Y167851D01*
X383254Y167453D01*
X382428Y166819D01*
X381795Y165993D01*
X381396Y165032D01*
X381260Y164000D01*
X381396Y162968D01*
X381795Y162007D01*
X382428Y161181D01*
X383254Y160547D01*
X384215Y160149D01*
X385247Y160013D01*
X391153D01*
X392185Y160149D01*
X393146Y160547D01*
X393972Y161181D01*
X394605Y162007D01*
X395004Y162968D01*
X395140Y164000D01*
X395004Y165032D01*
X394605Y165993D01*
X393972Y166819D01*
X393146Y167453D01*
X392185Y167851D01*
X391153Y167987D01*
D02*
G37*
G36*
X127027Y154500D02*
X127000D01*
Y151000D01*
X130500D01*
Y151027D01*
X130227Y152044D01*
X129701Y152956D01*
X128956Y153701D01*
X128044Y154227D01*
X127027Y154500D01*
D02*
G37*
G36*
X126000D02*
X125973D01*
X124956Y154227D01*
X124044Y153701D01*
X123299Y152956D01*
X122773Y152044D01*
X122500Y151027D01*
Y151000D01*
X126000D01*
Y154500D01*
D02*
G37*
G36*
X177027Y154000D02*
X177000D01*
Y150500D01*
X180500D01*
Y150527D01*
X180227Y151544D01*
X179701Y152456D01*
X178956Y153201D01*
X178044Y153727D01*
X177027Y154000D01*
D02*
G37*
G36*
X176000D02*
X175973D01*
X174956Y153727D01*
X174044Y153201D01*
X173299Y152456D01*
X172773Y151544D01*
X172500Y150527D01*
Y150500D01*
X176000D01*
Y154000D01*
D02*
G37*
G36*
X77027D02*
X77000D01*
Y150500D01*
X80500D01*
Y150527D01*
X80227Y151544D01*
X79701Y152456D01*
X78956Y153201D01*
X78044Y153727D01*
X77027Y154000D01*
D02*
G37*
G36*
X76000D02*
X75973D01*
X74956Y153727D01*
X74044Y153201D01*
X73299Y152456D01*
X72773Y151544D01*
X72500Y150527D01*
Y150500D01*
X76000D01*
Y154000D01*
D02*
G37*
G36*
X391153Y157987D02*
X385247D01*
X384215Y157851D01*
X383254Y157453D01*
X382428Y156819D01*
X381795Y155993D01*
X381396Y155032D01*
X381260Y154000D01*
X381396Y152968D01*
X381795Y152007D01*
X382428Y151181D01*
X383254Y150547D01*
X384215Y150149D01*
X385247Y150013D01*
X391153D01*
X392185Y150149D01*
X393146Y150547D01*
X393972Y151181D01*
X394605Y152007D01*
X395004Y152968D01*
X395140Y154000D01*
X395004Y155032D01*
X394605Y155993D01*
X393972Y156819D01*
X393146Y157453D01*
X392185Y157851D01*
X391153Y157987D01*
D02*
G37*
G36*
X27027Y153500D02*
X27000D01*
Y150000D01*
X30500D01*
Y150027D01*
X30227Y151044D01*
X29701Y151956D01*
X28956Y152701D01*
X28044Y153227D01*
X27027Y153500D01*
D02*
G37*
G36*
X26000D02*
X25973D01*
X24956Y153227D01*
X24044Y152701D01*
X23299Y151956D01*
X22773Y151044D01*
X22500Y150027D01*
Y150000D01*
X26000D01*
Y153500D01*
D02*
G37*
G36*
X537297Y158348D02*
X527915D01*
Y148967D01*
X537297D01*
Y158348D01*
D02*
G37*
G36*
X484011D02*
X482776D01*
X481583Y158029D01*
X480513Y157411D01*
X479640Y156538D01*
X479022Y155468D01*
X478703Y154275D01*
Y153040D01*
X479022Y151847D01*
X479640Y150777D01*
X480513Y149904D01*
X481583Y149286D01*
X482776Y148967D01*
X484011D01*
X485204Y149286D01*
X486274Y149904D01*
X487147Y150777D01*
X487765Y151847D01*
X488085Y153040D01*
Y154275D01*
X487765Y155468D01*
X487147Y156538D01*
X486274Y157411D01*
X485204Y158029D01*
X484011Y158348D01*
D02*
G37*
G36*
X468297D02*
X458915D01*
Y148967D01*
X468297D01*
Y158348D01*
D02*
G37*
G36*
X415011D02*
X413776D01*
X412583Y158029D01*
X411513Y157411D01*
X410640Y156538D01*
X410022Y155468D01*
X409703Y154275D01*
Y153040D01*
X410022Y151847D01*
X410640Y150777D01*
X411513Y149904D01*
X412583Y149286D01*
X413776Y148967D01*
X415011D01*
X416204Y149286D01*
X417274Y149904D01*
X418147Y150777D01*
X418765Y151847D01*
X419085Y153040D01*
Y154275D01*
X418765Y155468D01*
X418147Y156538D01*
X417274Y157411D01*
X416204Y158029D01*
X415011Y158348D01*
D02*
G37*
G36*
X130500Y150000D02*
X127000D01*
Y146500D01*
X127027D01*
X128044Y146773D01*
X128956Y147299D01*
X129701Y148044D01*
X130227Y148956D01*
X130500Y149973D01*
Y150000D01*
D02*
G37*
G36*
X126000D02*
X122500D01*
Y149973D01*
X122773Y148956D01*
X123299Y148044D01*
X124044Y147299D01*
X124956Y146773D01*
X125973Y146500D01*
X126000D01*
Y150000D01*
D02*
G37*
G36*
X180500Y149500D02*
X177000D01*
Y146000D01*
X177027D01*
X178044Y146273D01*
X178956Y146799D01*
X179701Y147544D01*
X180227Y148456D01*
X180500Y149473D01*
Y149500D01*
D02*
G37*
G36*
X176000D02*
X172500D01*
Y149473D01*
X172773Y148456D01*
X173299Y147544D01*
X174044Y146799D01*
X174956Y146273D01*
X175973Y146000D01*
X176000D01*
Y149500D01*
D02*
G37*
G36*
X80500D02*
X77000D01*
Y146000D01*
X77027D01*
X78044Y146273D01*
X78956Y146799D01*
X79701Y147544D01*
X80227Y148456D01*
X80500Y149473D01*
Y149500D01*
D02*
G37*
G36*
X76000D02*
X72500D01*
Y149473D01*
X72773Y148456D01*
X73299Y147544D01*
X74044Y146799D01*
X74956Y146273D01*
X75973Y146000D01*
X76000D01*
Y149500D01*
D02*
G37*
G36*
X30500Y149000D02*
X27000D01*
Y145500D01*
X27027D01*
X28044Y145773D01*
X28956Y146299D01*
X29701Y147044D01*
X30227Y147956D01*
X30500Y148973D01*
Y149000D01*
D02*
G37*
G36*
X26000D02*
X22500D01*
Y148973D01*
X22773Y147956D01*
X23299Y147044D01*
X24044Y146299D01*
X24956Y145773D01*
X25973Y145500D01*
X26000D01*
Y149000D01*
D02*
G37*
G36*
X508611Y150425D02*
X507389D01*
X506208Y150109D01*
X505150Y149498D01*
X504286Y148634D01*
X503675Y147575D01*
X503358Y146395D01*
Y145172D01*
X503675Y143992D01*
X504286Y142933D01*
X505150Y142069D01*
X506208Y141458D01*
X507389Y141142D01*
X508611D01*
X509792Y141458D01*
X510850Y142069D01*
X511714Y142933D01*
X512325Y143992D01*
X512642Y145172D01*
Y146395D01*
X512325Y147575D01*
X511714Y148634D01*
X510850Y149498D01*
X509792Y150109D01*
X508611Y150425D01*
D02*
G37*
G36*
X439611D02*
X438389D01*
X437208Y150109D01*
X436150Y149498D01*
X435286Y148634D01*
X434675Y147575D01*
X434358Y146395D01*
Y145172D01*
X434675Y143992D01*
X435286Y142933D01*
X436150Y142069D01*
X437208Y141458D01*
X438389Y141142D01*
X439611D01*
X440792Y141458D01*
X441850Y142069D01*
X442714Y142933D01*
X443325Y143992D01*
X443642Y145172D01*
Y146395D01*
X443325Y147575D01*
X442714Y148634D01*
X441850Y149498D01*
X440792Y150109D01*
X439611Y150425D01*
D02*
G37*
G36*
X391153Y147987D02*
X385247D01*
X384215Y147851D01*
X383254Y147453D01*
X382428Y146819D01*
X381795Y145993D01*
X381396Y145032D01*
X381260Y144000D01*
X381396Y142968D01*
X381795Y142007D01*
X382428Y141181D01*
X383254Y140547D01*
X384215Y140149D01*
X385247Y140013D01*
X391153D01*
X392185Y140149D01*
X393146Y140547D01*
X393972Y141181D01*
X394605Y142007D01*
X395004Y142968D01*
X395140Y144000D01*
X395004Y145032D01*
X394605Y145993D01*
X393972Y146819D01*
X393146Y147453D01*
X392185Y147851D01*
X391153Y147987D01*
D02*
G37*
G36*
Y137987D02*
X385247D01*
X384215Y137851D01*
X383254Y137453D01*
X382428Y136819D01*
X381795Y135993D01*
X381396Y135032D01*
X381260Y134000D01*
X381396Y132968D01*
X381795Y132007D01*
X382428Y131181D01*
X383254Y130547D01*
X384215Y130149D01*
X385247Y130013D01*
X391153D01*
X392185Y130149D01*
X393146Y130547D01*
X393972Y131181D01*
X394605Y132007D01*
X395004Y132968D01*
X395140Y134000D01*
X395004Y135032D01*
X394605Y135993D01*
X393972Y136819D01*
X393146Y137453D01*
X392185Y137851D01*
X391153Y137987D01*
D02*
G37*
G36*
X22264Y127465D02*
X19500D01*
Y124702D01*
X22264D01*
Y127465D01*
D02*
G37*
G36*
X18500D02*
X15736D01*
Y124702D01*
X18500D01*
Y127465D01*
D02*
G37*
G36*
X22264Y123702D02*
X19500D01*
Y120938D01*
X22264D01*
Y123702D01*
D02*
G37*
G36*
X18500D02*
X15736D01*
Y120938D01*
X18500D01*
Y123702D01*
D02*
G37*
G36*
X391153Y127987D02*
X385247D01*
X384215Y127851D01*
X383254Y127453D01*
X382428Y126819D01*
X381795Y125993D01*
X381396Y125032D01*
X381260Y124000D01*
X381396Y122968D01*
X381795Y122007D01*
X382428Y121181D01*
X383254Y120547D01*
X384215Y120149D01*
X385247Y120013D01*
X391153D01*
X392185Y120149D01*
X393146Y120547D01*
X393972Y121181D01*
X394605Y122007D01*
X395004Y122968D01*
X395140Y124000D01*
X395004Y125032D01*
X394605Y125993D01*
X393972Y126819D01*
X393146Y127453D01*
X392185Y127851D01*
X391153Y127987D01*
D02*
G37*
G36*
Y117987D02*
X388700D01*
Y114500D01*
X395074D01*
X395004Y115032D01*
X394605Y115993D01*
X393972Y116819D01*
X393146Y117453D01*
X392185Y117851D01*
X391153Y117987D01*
D02*
G37*
G36*
X387700D02*
X385247D01*
X384215Y117851D01*
X383254Y117453D01*
X382428Y116819D01*
X381795Y115993D01*
X381396Y115032D01*
X381326Y114500D01*
X387700D01*
Y117987D01*
D02*
G37*
G36*
X508611Y123158D02*
X507389D01*
X506208Y122842D01*
X505150Y122231D01*
X504286Y121367D01*
X503675Y120308D01*
X503358Y119128D01*
Y117905D01*
X503675Y116725D01*
X504286Y115666D01*
X505150Y114802D01*
X506208Y114191D01*
X507389Y113875D01*
X508611D01*
X509792Y114191D01*
X510850Y114802D01*
X511714Y115666D01*
X512325Y116725D01*
X512642Y117905D01*
Y119128D01*
X512325Y120308D01*
X511714Y121367D01*
X510850Y122231D01*
X509792Y122842D01*
X508611Y123158D01*
D02*
G37*
G36*
X439611D02*
X438389D01*
X437208Y122842D01*
X436150Y122231D01*
X435286Y121367D01*
X434675Y120308D01*
X434358Y119128D01*
Y117905D01*
X434675Y116725D01*
X435286Y115666D01*
X436150Y114802D01*
X437208Y114191D01*
X438389Y113875D01*
X439611D01*
X440792Y114191D01*
X441850Y114802D01*
X442714Y115666D01*
X443325Y116725D01*
X443642Y117905D01*
Y119128D01*
X443325Y120308D01*
X442714Y121367D01*
X441850Y122231D01*
X440792Y122842D01*
X439611Y123158D01*
D02*
G37*
G36*
X19430Y119564D02*
X18570D01*
X17740Y119341D01*
X16996Y118912D01*
X16388Y118304D01*
X15959Y117560D01*
X15736Y116730D01*
Y115870D01*
X15959Y115040D01*
X16388Y114296D01*
X16996Y113688D01*
X17740Y113259D01*
X18570Y113036D01*
X19430D01*
X20260Y113259D01*
X21004Y113688D01*
X21612Y114296D01*
X22041Y115040D01*
X22264Y115870D01*
Y116730D01*
X22041Y117560D01*
X21612Y118304D01*
X21004Y118912D01*
X20260Y119341D01*
X19430Y119564D01*
D02*
G37*
G36*
X464224Y115333D02*
X464106D01*
Y111143D01*
X468297D01*
Y111260D01*
X467978Y112453D01*
X467360Y113523D01*
X466487Y114396D01*
X465417Y115014D01*
X464224Y115333D01*
D02*
G37*
G36*
X533224D02*
X533106D01*
Y111143D01*
X537297D01*
Y111260D01*
X536978Y112453D01*
X536360Y113523D01*
X535487Y114396D01*
X534417Y115014D01*
X533224Y115333D01*
D02*
G37*
G36*
X484011D02*
X483894D01*
Y111143D01*
X488085D01*
Y111260D01*
X487765Y112453D01*
X487147Y113523D01*
X486274Y114396D01*
X485204Y115014D01*
X484011Y115333D01*
D02*
G37*
G36*
X415011D02*
X414894D01*
Y111143D01*
X419085D01*
Y111260D01*
X418765Y112453D01*
X418147Y113523D01*
X417274Y114396D01*
X416204Y115014D01*
X415011Y115333D01*
D02*
G37*
G36*
X413894D02*
X413776D01*
X412583Y115014D01*
X411513Y114396D01*
X410640Y113523D01*
X410022Y112453D01*
X409703Y111260D01*
Y111143D01*
X413894D01*
Y115333D01*
D02*
G37*
G36*
X482894D02*
X482776D01*
X481583Y115014D01*
X480513Y114396D01*
X479640Y113523D01*
X479022Y112453D01*
X478703Y111260D01*
Y111143D01*
X482894D01*
Y115333D01*
D02*
G37*
G36*
X463106D02*
X462989D01*
X461796Y115014D01*
X460726Y114396D01*
X459853Y113523D01*
X459235Y112453D01*
X458915Y111260D01*
Y111143D01*
X463106D01*
Y115333D01*
D02*
G37*
G36*
X532106D02*
X531989D01*
X530796Y115014D01*
X529726Y114396D01*
X528853Y113523D01*
X528235Y112453D01*
X527915Y111260D01*
Y111143D01*
X532106D01*
Y115333D01*
D02*
G37*
G36*
X395074Y113500D02*
X388700D01*
Y110013D01*
X391153D01*
X392185Y110149D01*
X393146Y110547D01*
X393972Y111181D01*
X394605Y112007D01*
X395004Y112968D01*
X395074Y113500D01*
D02*
G37*
G36*
X387700D02*
X381326D01*
X381396Y112968D01*
X381795Y112007D01*
X382428Y111181D01*
X383254Y110547D01*
X384215Y110149D01*
X385247Y110013D01*
X387700D01*
Y113500D01*
D02*
G37*
G36*
X537297Y110143D02*
X533106D01*
Y105952D01*
X533224D01*
X534417Y106271D01*
X535487Y106889D01*
X536360Y107762D01*
X536978Y108832D01*
X537297Y110025D01*
Y110143D01*
D02*
G37*
G36*
X532106D02*
X527915D01*
Y110025D01*
X528235Y108832D01*
X528853Y107762D01*
X529726Y106889D01*
X530796Y106271D01*
X531989Y105952D01*
X532106D01*
Y110143D01*
D02*
G37*
G36*
X488085D02*
X483894D01*
Y105952D01*
X484011D01*
X485204Y106271D01*
X486274Y106889D01*
X487147Y107762D01*
X487765Y108832D01*
X488085Y110025D01*
Y110143D01*
D02*
G37*
G36*
X482894D02*
X478703D01*
Y110025D01*
X479022Y108832D01*
X479640Y107762D01*
X480513Y106889D01*
X481583Y106271D01*
X482776Y105952D01*
X482894D01*
Y110143D01*
D02*
G37*
G36*
X468297D02*
X464106D01*
Y105952D01*
X464224D01*
X465417Y106271D01*
X466487Y106889D01*
X467360Y107762D01*
X467978Y108832D01*
X468297Y110025D01*
Y110143D01*
D02*
G37*
G36*
X463106D02*
X458915D01*
Y110025D01*
X459235Y108832D01*
X459853Y107762D01*
X460726Y106889D01*
X461796Y106271D01*
X462989Y105952D01*
X463106D01*
Y110143D01*
D02*
G37*
G36*
X419085D02*
X414894D01*
Y105952D01*
X415011D01*
X416204Y106271D01*
X417274Y106889D01*
X418147Y107762D01*
X418765Y108832D01*
X419085Y110025D01*
Y110143D01*
D02*
G37*
G36*
X413894D02*
X409703D01*
Y110025D01*
X410022Y108832D01*
X410640Y107762D01*
X411513Y106889D01*
X412583Y106271D01*
X413776Y105952D01*
X413894D01*
Y110143D01*
D02*
G37*
G36*
X19430Y111666D02*
X18570D01*
X17740Y111444D01*
X16996Y111014D01*
X16388Y110406D01*
X15959Y109662D01*
X15736Y108832D01*
Y107973D01*
X15959Y107143D01*
X16388Y106398D01*
X16996Y105791D01*
X17740Y105361D01*
X18570Y105139D01*
X19430D01*
X20260Y105361D01*
X21004Y105791D01*
X21612Y106398D01*
X22041Y107143D01*
X22264Y107973D01*
Y108832D01*
X22041Y109662D01*
X21612Y110406D01*
X21004Y111014D01*
X20260Y111444D01*
X19430Y111666D01*
D02*
G37*
G36*
X391153Y107987D02*
X385247D01*
X384215Y107851D01*
X383254Y107453D01*
X382428Y106819D01*
X381795Y105993D01*
X381396Y105032D01*
X381260Y104000D01*
X381396Y102968D01*
X381795Y102007D01*
X382428Y101181D01*
X383254Y100547D01*
X384215Y100149D01*
X385247Y100013D01*
X391153D01*
X392185Y100149D01*
X393146Y100547D01*
X393972Y101181D01*
X394605Y102007D01*
X395004Y102968D01*
X395140Y104000D01*
X395004Y105032D01*
X394605Y105993D01*
X393972Y106819D01*
X393146Y107453D01*
X392185Y107851D01*
X391153Y107987D01*
D02*
G37*
G36*
X537297Y95648D02*
X527915D01*
Y86266D01*
X537297D01*
Y95648D01*
D02*
G37*
G36*
X484011D02*
X482776D01*
X481583Y95329D01*
X480513Y94711D01*
X479640Y93838D01*
X479022Y92768D01*
X478703Y91575D01*
Y90340D01*
X479022Y89147D01*
X479640Y88077D01*
X480513Y87204D01*
X481583Y86586D01*
X482776Y86266D01*
X484011D01*
X485204Y86586D01*
X486274Y87204D01*
X487147Y88077D01*
X487765Y89147D01*
X488085Y90340D01*
Y91575D01*
X487765Y92768D01*
X487147Y93838D01*
X486274Y94711D01*
X485204Y95329D01*
X484011Y95648D01*
D02*
G37*
G36*
X468297D02*
X458915D01*
Y86266D01*
X468297D01*
Y95648D01*
D02*
G37*
G36*
X415011D02*
X413776D01*
X412583Y95329D01*
X411513Y94711D01*
X410640Y93838D01*
X410022Y92768D01*
X409703Y91575D01*
Y90340D01*
X410022Y89147D01*
X410640Y88077D01*
X411513Y87204D01*
X412583Y86586D01*
X413776Y86266D01*
X415011D01*
X416204Y86586D01*
X417274Y87204D01*
X418147Y88077D01*
X418765Y89147D01*
X419085Y90340D01*
Y91575D01*
X418765Y92768D01*
X418147Y93838D01*
X417274Y94711D01*
X416204Y95329D01*
X415011Y95648D01*
D02*
G37*
G36*
X68995Y91071D02*
X68700D01*
Y83500D01*
X76271D01*
Y83795D01*
X75961Y85354D01*
X75352Y86823D01*
X74469Y88145D01*
X73345Y89269D01*
X72023Y90152D01*
X70554Y90761D01*
X68995Y91071D01*
D02*
G37*
G36*
X67700D02*
X67405D01*
X65846Y90761D01*
X64377Y90152D01*
X63055Y89269D01*
X61931Y88145D01*
X61048Y86823D01*
X60439Y85354D01*
X60129Y83795D01*
Y83500D01*
X67700D01*
Y91071D01*
D02*
G37*
G36*
X370495Y89571D02*
X370200D01*
Y82000D01*
X377771D01*
Y82295D01*
X377461Y83854D01*
X376852Y85323D01*
X375969Y86645D01*
X374845Y87769D01*
X373523Y88652D01*
X372054Y89261D01*
X370495Y89571D01*
D02*
G37*
G36*
X369200D02*
X368905D01*
X367346Y89261D01*
X365877Y88652D01*
X364555Y87769D01*
X363431Y86645D01*
X362548Y85323D01*
X361939Y83854D01*
X361629Y82295D01*
Y82000D01*
X369200D01*
Y89571D01*
D02*
G37*
G36*
X508611Y87725D02*
X507389D01*
X506208Y87409D01*
X505150Y86798D01*
X504286Y85934D01*
X503675Y84875D01*
X503358Y83695D01*
Y82472D01*
X503675Y81292D01*
X504286Y80233D01*
X505150Y79369D01*
X506208Y78758D01*
X507389Y78442D01*
X508611D01*
X509792Y78758D01*
X510850Y79369D01*
X511714Y80233D01*
X512325Y81292D01*
X512642Y82472D01*
Y83695D01*
X512325Y84875D01*
X511714Y85934D01*
X510850Y86798D01*
X509792Y87409D01*
X508611Y87725D01*
D02*
G37*
G36*
X439611D02*
X438389D01*
X437208Y87409D01*
X436150Y86798D01*
X435286Y85934D01*
X434675Y84875D01*
X434358Y83695D01*
Y82472D01*
X434675Y81292D01*
X435286Y80233D01*
X436150Y79369D01*
X437208Y78758D01*
X438389Y78442D01*
X439611D01*
X440792Y78758D01*
X441850Y79369D01*
X442714Y80233D01*
X443325Y81292D01*
X443642Y82472D01*
Y83695D01*
X443325Y84875D01*
X442714Y85934D01*
X441850Y86798D01*
X440792Y87409D01*
X439611Y87725D01*
D02*
G37*
G36*
X76271Y82500D02*
X68700D01*
Y74929D01*
X68995D01*
X70554Y75239D01*
X72023Y75848D01*
X73345Y76731D01*
X74469Y77855D01*
X75352Y79177D01*
X75961Y80646D01*
X76271Y82205D01*
Y82500D01*
D02*
G37*
G36*
X67700D02*
X60129D01*
Y82205D01*
X60439Y80646D01*
X61048Y79177D01*
X61931Y77855D01*
X63055Y76731D01*
X64377Y75848D01*
X65846Y75239D01*
X67405Y74929D01*
X67700D01*
Y82500D01*
D02*
G37*
G36*
X377771Y81000D02*
X370200D01*
Y73429D01*
X370495D01*
X372054Y73739D01*
X373523Y74348D01*
X374845Y75231D01*
X375969Y76355D01*
X376852Y77677D01*
X377461Y79146D01*
X377771Y80705D01*
Y81000D01*
D02*
G37*
G36*
X369200D02*
X361629D01*
Y80705D01*
X361939Y79146D01*
X362548Y77677D01*
X363431Y76355D01*
X364555Y75231D01*
X365877Y74348D01*
X367346Y73739D01*
X368905Y73429D01*
X369200D01*
Y81000D01*
D02*
G37*
G36*
X6622Y81222D02*
X5578D01*
X4568Y80952D01*
X3663Y80429D01*
X2924Y79690D01*
X2402Y78785D01*
X2131Y77776D01*
Y76731D01*
X2402Y75722D01*
X2924Y74817D01*
X3663Y74078D01*
X4568Y73555D01*
X5578Y73285D01*
X6622D01*
X7632Y73555D01*
X8537Y74078D01*
X9276Y74817D01*
X9798Y75722D01*
X10069Y76731D01*
Y77776D01*
X9798Y78785D01*
X9276Y79690D01*
X8537Y80429D01*
X7632Y80952D01*
X6622Y81222D01*
D02*
G37*
G36*
X46063Y71462D02*
X45970D01*
Y65943D01*
X51490D01*
Y66035D01*
X51258Y67198D01*
X50805Y68294D01*
X50146Y69280D01*
X49307Y70118D01*
X48322Y70777D01*
X47226Y71231D01*
X46063Y71462D01*
D02*
G37*
G36*
X44970D02*
X44877D01*
X43714Y71231D01*
X42619Y70777D01*
X41633Y70118D01*
X40794Y69280D01*
X40135Y68294D01*
X39682Y67198D01*
X39450Y66035D01*
Y65943D01*
X44970D01*
Y71462D01*
D02*
G37*
G36*
X51490Y64943D02*
X45970D01*
Y59423D01*
X46063D01*
X47226Y59654D01*
X48322Y60108D01*
X49307Y60767D01*
X50146Y61605D01*
X50805Y62591D01*
X51258Y63687D01*
X51490Y64850D01*
Y64943D01*
D02*
G37*
G36*
X44970D02*
X39450D01*
Y64850D01*
X39682Y63687D01*
X40135Y62591D01*
X40794Y61605D01*
X41633Y60767D01*
X42619Y60108D01*
X43714Y59654D01*
X44877Y59423D01*
X44970D01*
Y64943D01*
D02*
G37*
G36*
X111252Y57952D02*
X103748D01*
Y50448D01*
X111252D01*
Y57952D01*
D02*
G37*
G36*
X290691Y60750D02*
X289309D01*
X287974Y60392D01*
X286776Y59701D01*
X285799Y58724D01*
X285108Y57526D01*
X284750Y56191D01*
Y54809D01*
X285108Y53474D01*
X285799Y52276D01*
X286776Y51299D01*
X287974Y50608D01*
X289309Y50250D01*
X290691D01*
X292026Y50608D01*
X293224Y51299D01*
X294201Y52276D01*
X294892Y53474D01*
X295250Y54809D01*
Y56191D01*
X294892Y57526D01*
X294201Y58724D01*
X293224Y59701D01*
X292026Y60392D01*
X290691Y60750D01*
D02*
G37*
G36*
X203691D02*
X202309D01*
X200974Y60392D01*
X199776Y59701D01*
X198799Y58724D01*
X198108Y57526D01*
X197750Y56191D01*
Y54809D01*
X198108Y53474D01*
X198799Y52276D01*
X199776Y51299D01*
X200974Y50608D01*
X202309Y50250D01*
X203691D01*
X205026Y50608D01*
X206224Y51299D01*
X207201Y52276D01*
X207892Y53474D01*
X208250Y54809D01*
Y56191D01*
X207892Y57526D01*
X207201Y58724D01*
X206224Y59701D01*
X205026Y60392D01*
X203691Y60750D01*
D02*
G37*
G36*
X181180Y62106D02*
X179820D01*
X178486Y61840D01*
X177229Y61320D01*
X176098Y60564D01*
X175136Y59602D01*
X174380Y58471D01*
X173860Y57214D01*
X173594Y55880D01*
Y54520D01*
X173860Y53186D01*
X174380Y51929D01*
X175136Y50798D01*
X176098Y49836D01*
X177229Y49080D01*
X178486Y48560D01*
X179820Y48294D01*
X181180D01*
X182514Y48560D01*
X183771Y49080D01*
X184902Y49836D01*
X185864Y50798D01*
X186620Y51929D01*
X187140Y53186D01*
X187406Y54520D01*
Y55880D01*
X187140Y57214D01*
X186620Y58471D01*
X185864Y59602D01*
X184902Y60564D01*
X183771Y61320D01*
X182514Y61840D01*
X181180Y62106D01*
D02*
G37*
G36*
X108000Y47950D02*
Y44700D01*
X111250D01*
X110996Y45648D01*
X110502Y46504D01*
X109804Y47202D01*
X108948Y47696D01*
X108000Y47950D01*
D02*
G37*
G36*
X107000D02*
X106052Y47696D01*
X105196Y47202D01*
X104498Y46504D01*
X104004Y45648D01*
X103750Y44700D01*
X107000D01*
Y47950D01*
D02*
G37*
G36*
X111250Y43700D02*
X108000D01*
Y40450D01*
X108948Y40704D01*
X109804Y41198D01*
X110502Y41896D01*
X110996Y42752D01*
X111250Y43700D01*
D02*
G37*
G36*
X107000D02*
X103750D01*
X104004Y42752D01*
X104498Y41896D01*
X105196Y41198D01*
X106052Y40704D01*
X107000Y40450D01*
Y43700D01*
D02*
G37*
G36*
X51490Y51777D02*
X39450D01*
Y39738D01*
X51490D01*
Y51777D01*
D02*
G37*
G36*
X107994Y37952D02*
X107006D01*
X106052Y37696D01*
X105196Y37202D01*
X104498Y36504D01*
X104004Y35648D01*
X103748Y34694D01*
Y33706D01*
X104004Y32752D01*
X104498Y31896D01*
X105196Y31198D01*
X106052Y30704D01*
X107006Y30448D01*
X107994D01*
X108948Y30704D01*
X109804Y31198D01*
X110502Y31896D01*
X110996Y32752D01*
X111252Y33706D01*
Y34694D01*
X110996Y35648D01*
X110502Y36504D01*
X109804Y37202D01*
X108948Y37696D01*
X107994Y37952D01*
D02*
G37*
G36*
X6622Y37915D02*
X5578D01*
X4568Y37644D01*
X3663Y37122D01*
X2924Y36383D01*
X2402Y35478D01*
X2131Y34469D01*
Y33424D01*
X2402Y32415D01*
X2924Y31510D01*
X3663Y30771D01*
X4568Y30248D01*
X5578Y29978D01*
X6622D01*
X7632Y30248D01*
X8537Y30771D01*
X9276Y31510D01*
X9798Y32415D01*
X10069Y33424D01*
Y34469D01*
X9798Y35478D01*
X9276Y36383D01*
X8537Y37122D01*
X7632Y37644D01*
X6622Y37915D01*
D02*
G37*
G36*
X107994Y27952D02*
X107006D01*
X106052Y27696D01*
X105196Y27202D01*
X104498Y26504D01*
X104004Y25648D01*
X103748Y24694D01*
Y23706D01*
X104004Y22752D01*
X104498Y21896D01*
X105196Y21198D01*
X106052Y20704D01*
X107006Y20448D01*
X107994D01*
X108948Y20704D01*
X109804Y21198D01*
X110502Y21896D01*
X110996Y22752D01*
X111252Y23706D01*
Y24694D01*
X110996Y25648D01*
X110502Y26504D01*
X109804Y27202D01*
X108948Y27696D01*
X107994Y27952D01*
D02*
G37*
G36*
X108000Y17950D02*
Y14700D01*
X111250D01*
X110996Y15648D01*
X110502Y16504D01*
X109804Y17202D01*
X108948Y17696D01*
X108000Y17950D01*
D02*
G37*
G36*
X107000D02*
X106052Y17696D01*
X105196Y17202D01*
X104498Y16504D01*
X104004Y15648D01*
X103750Y14700D01*
X107000D01*
Y17950D01*
D02*
G37*
G36*
X180500Y65234D02*
Y65220D01*
X180110Y65142D01*
X179779Y64921D01*
X179558Y64590D01*
X179480Y64200D01*
X179558Y63810D01*
X179779Y63479D01*
X179779Y63479D01*
X180110Y63258D01*
X180500Y63180D01*
X181466Y63098D01*
X182255Y63020D01*
X183942Y62509D01*
X185496Y61678D01*
X186859Y60559D01*
X187978Y59196D01*
X188809Y57642D01*
X189321Y55954D01*
X189489Y54243D01*
X189480Y54200D01*
Y14200D01*
X189558Y13810D01*
X189779Y13479D01*
X190110Y13258D01*
X190500Y13180D01*
X190890Y13258D01*
X191221Y13479D01*
X191442Y13810D01*
X191520Y14200D01*
Y54200D01*
X191534D01*
X191398Y55926D01*
X190994Y57610D01*
X190331Y59209D01*
X189427Y60686D01*
X188302Y62002D01*
X186986Y63127D01*
X185509Y64031D01*
X183910Y64694D01*
X182226Y65098D01*
X180500Y65234D01*
D02*
G37*
G36*
X523311Y27071D02*
X521721D01*
X520162Y26761D01*
X518693Y26152D01*
X517371Y25269D01*
X516247Y24145D01*
X515364Y22823D01*
X514755Y21354D01*
X514445Y19795D01*
Y18205D01*
X514755Y16646D01*
X515364Y15177D01*
X516247Y13855D01*
X517371Y12731D01*
X518693Y11848D01*
X520162Y11239D01*
X521721Y10929D01*
X523311D01*
X524870Y11239D01*
X526339Y11848D01*
X527661Y12731D01*
X528785Y13855D01*
X529668Y15177D01*
X530277Y16646D01*
X530587Y18205D01*
Y19795D01*
X530277Y21354D01*
X529668Y22823D01*
X528785Y24145D01*
X527661Y25269D01*
X526339Y26152D01*
X524870Y26761D01*
X523311Y27071D01*
D02*
G37*
G36*
X23295D02*
X21705D01*
X20146Y26761D01*
X18677Y26152D01*
X17355Y25269D01*
X16231Y24145D01*
X15348Y22823D01*
X14739Y21354D01*
X14429Y19795D01*
Y18205D01*
X14739Y16646D01*
X15348Y15177D01*
X16231Y13855D01*
X17355Y12731D01*
X18677Y11848D01*
X20146Y11239D01*
X21705Y10929D01*
X23295D01*
X24854Y11239D01*
X26323Y11848D01*
X27645Y12731D01*
X28769Y13855D01*
X29652Y15177D01*
X30261Y16646D01*
X30571Y18205D01*
Y19795D01*
X30261Y21354D01*
X29652Y22823D01*
X28769Y24145D01*
X27645Y25269D01*
X26323Y26152D01*
X24854Y26761D01*
X23295Y27071D01*
D02*
G37*
G36*
X111250Y13700D02*
X108000D01*
Y10450D01*
X108948Y10704D01*
X109804Y11198D01*
X110502Y11896D01*
X110996Y12752D01*
X111250Y13700D01*
D02*
G37*
G36*
X107000D02*
X103750D01*
X104004Y12752D01*
X104498Y11896D01*
X105196Y11198D01*
X106052Y10704D01*
X107000Y10450D01*
Y13700D01*
D02*
G37*
G36*
X290691Y17750D02*
X289309D01*
X287974Y17392D01*
X286776Y16701D01*
X285799Y15724D01*
X285108Y14526D01*
X284750Y13191D01*
Y11809D01*
X285108Y10474D01*
X285799Y9276D01*
X286776Y8299D01*
X287974Y7608D01*
X289309Y7250D01*
X290691D01*
X292026Y7608D01*
X293224Y8299D01*
X294201Y9276D01*
X294892Y10474D01*
X295250Y11809D01*
Y13191D01*
X294892Y14526D01*
X294201Y15724D01*
X293224Y16701D01*
X292026Y17392D01*
X290691Y17750D01*
D02*
G37*
G36*
X203691D02*
X202309D01*
X200974Y17392D01*
X199776Y16701D01*
X198799Y15724D01*
X198108Y14526D01*
X197750Y13191D01*
Y11809D01*
X198108Y10474D01*
X198799Y9276D01*
X199776Y8299D01*
X200974Y7608D01*
X202309Y7250D01*
X203691D01*
X205026Y7608D01*
X206224Y8299D01*
X207201Y9276D01*
X207892Y10474D01*
X208250Y11809D01*
Y13191D01*
X207892Y14526D01*
X207201Y15724D01*
X206224Y16701D01*
X205026Y17392D01*
X203691Y17750D01*
D02*
G37*
G36*
X181180Y20106D02*
X179820D01*
X178486Y19840D01*
X177229Y19320D01*
X176098Y18564D01*
X175136Y17602D01*
X174380Y16471D01*
X173860Y15214D01*
X173594Y13880D01*
Y12520D01*
X173860Y11186D01*
X174380Y9929D01*
X175136Y8798D01*
X176098Y7836D01*
X177229Y7080D01*
X178486Y6560D01*
X179820Y6295D01*
X181180D01*
X182514Y6560D01*
X183771Y7080D01*
X184902Y7836D01*
X185864Y8798D01*
X186620Y9929D01*
X187140Y11186D01*
X187406Y12520D01*
Y13880D01*
X187140Y15214D01*
X186620Y16471D01*
X185864Y17602D01*
X184902Y18564D01*
X183771Y19320D01*
X182514Y19840D01*
X181180Y20106D01*
D02*
G37*
%LPD*%
D35*
X532606Y90957D02*
D03*
X463606D02*
D03*
X498606Y216357D02*
D03*
X463606Y153657D02*
D03*
X532606D02*
D03*
D36*
Y110643D02*
D03*
X483394Y90957D02*
D03*
Y110643D02*
D03*
X414394D02*
D03*
Y90957D02*
D03*
X463606Y110643D02*
D03*
X449394Y236042D02*
D03*
Y216357D02*
D03*
X498606Y236042D02*
D03*
X414394Y173343D02*
D03*
Y153657D02*
D03*
X463606Y173343D02*
D03*
X483394D02*
D03*
Y153657D02*
D03*
X532606Y173343D02*
D03*
D37*
X508000Y83083D02*
D03*
Y118517D02*
D03*
X439000D02*
D03*
Y83083D02*
D03*
X474000Y243917D02*
D03*
Y208484D02*
D03*
X439000Y181217D02*
D03*
Y145783D02*
D03*
X508000Y181217D02*
D03*
Y145783D02*
D03*
D38*
X388200Y234000D02*
D03*
Y224000D02*
D03*
Y214000D02*
D03*
Y204000D02*
D03*
Y194000D02*
D03*
Y184000D02*
D03*
Y174000D02*
D03*
Y164000D02*
D03*
Y154000D02*
D03*
Y144000D02*
D03*
Y134000D02*
D03*
Y124000D02*
D03*
Y104000D02*
D03*
Y114000D02*
D03*
D39*
X68200Y83000D02*
D03*
Y256000D02*
D03*
X369700Y81500D02*
D03*
Y256500D02*
D03*
X22500Y255000D02*
D03*
X522516Y19000D02*
D03*
X22500D02*
D03*
X522516Y255000D02*
D03*
X209800Y200300D02*
D03*
X182000Y225500D02*
D03*
X133500Y250000D02*
D03*
X176500Y150000D02*
D03*
X79500Y249000D02*
D03*
X34000Y250500D02*
D03*
X126500Y150500D02*
D03*
X76500Y150000D02*
D03*
X26500Y149500D02*
D03*
D40*
X290000Y55500D02*
D03*
Y12500D02*
D03*
X203000D02*
D03*
Y55500D02*
D03*
D41*
X107500Y34200D02*
D03*
Y14200D02*
D03*
Y44200D02*
D03*
Y24200D02*
D03*
D42*
X19000Y116300D02*
D03*
Y108402D02*
D03*
D43*
X45470Y65443D02*
D03*
D44*
X19000Y124202D02*
D03*
D45*
X6100Y33946D02*
D03*
Y77254D02*
D03*
D46*
X45470Y45757D02*
D03*
D47*
X107500Y54200D02*
D03*
D48*
X180500Y13200D02*
D03*
Y55200D02*
D03*
M02*
