M48
;Layer_Color=9474304
;FILE_FORMAT=2:5
INCH
;TYPE=PLATED
T01F00S00C0.01400
T02F00S00C0.03000
T03F00S00C0.03150
T04F00S00C0.03504
T05F00S00C0.03937
T06F00S00C0.04921
T07F00S00C0.06693
T08F00S00C0.08661
T09F00S00C0.14142
%
T01
X0157900Y0270100
T02
X0126500Y0386500
X0176500Y0387000
X0186559Y0387141
X0196200Y0387100
X0226500Y0387500
X0276500Y0387000
X0308200Y0435100
X0282000Y0462500
X0418867Y0420880
X0233500Y0487000
X0193200Y0485800
X0134000Y0485600
T03
X0119000Y0350602
Y0358500
Y0366402
X0488200Y0366200
Y0376200
Y0386200
Y0396200
Y0406200
Y0416200
Y0426200
Y0436200
Y0446200
Y0456200
Y0466200
Y0356200
Y0346200
Y0476200
T04
X0207500Y0256400
Y0266400
Y0276400
Y0286400
Y0296400
T05
X0106100Y0276147
Y0319454
T06
X0514394Y0333157
Y0352842
Y0395858
Y0415543
X0563606
Y0395858
X0583394
Y0415543
X0598606Y0458558
X0549394
X0563606Y0352842
Y0333157
X0583394
Y0352842
X0632606
Y0333157
Y0395858
Y0415543
X0598606Y0478242
X0549394
T07
X0145470Y0287958
Y0307643
T08
X0280500Y0255400
Y0297400
T09
X0622516Y0261200
X0122500
X0622516Y0497200
X0122500
M30
