G04*
G04 #@! TF.GenerationSoftware,Altium Limited,Altium Designer,26.3.0 (6)*
G04*
G04 Layer_Color=8388736*
%FSLAX25Y25*%
%MOIN*%
G70*
G04*
G04 #@! TF.SameCoordinates,D4C32256-51F4-4DD4-AA79-378863D69736*
G04*
G04*
G04 #@! TF.FilePolarity,Negative*
G04*
G01*
G75*
%ADD20O,0.06509X0.04934*%
%ADD21O,0.07887X0.05131*%
G04:AMPARAMS|DCode=22|XSize=67.06mil|YSize=67.06mil|CornerRadius=15.81mil|HoleSize=0mil|Usage=FLASHONLY|Rotation=90.000|XOffset=0mil|YOffset=0mil|HoleType=Round|Shape=RoundedRectangle|*
%AMROUNDEDRECTD22*
21,1,0.06706,0.03543,0,0,90.0*
21,1,0.03543,0.06706,0,0,90.0*
1,1,0.03162,0.01772,0.01772*
1,1,0.03162,0.01772,-0.01772*
1,1,0.03162,-0.01772,-0.01772*
1,1,0.03162,-0.01772,0.01772*
%
%ADD22ROUNDEDRECTD22*%
%ADD23R,0.05528X0.05528*%
%ADD24R,0.02929X0.03165*%
G04:AMPARAMS|DCode=25|XSize=67.06mil|YSize=67.06mil|CornerRadius=33.53mil|HoleSize=0mil|Usage=FLASHONLY|Rotation=90.000|XOffset=0mil|YOffset=0mil|HoleType=Round|Shape=RoundedRectangle|*
%AMROUNDEDRECTD25*
21,1,0.06706,0.00000,0,0,90.0*
21,1,0.00000,0.06706,0,0,90.0*
1,1,0.06706,0.00000,0.00000*
1,1,0.06706,0.00000,0.00000*
1,1,0.06706,0.00000,0.00000*
1,1,0.06706,0.00000,0.00000*
%
%ADD25ROUNDEDRECTD25*%
G04:AMPARAMS|DCode=26|XSize=67.06mil|YSize=67.06mil|CornerRadius=33.53mil|HoleSize=0mil|Usage=FLASHONLY|Rotation=90.000|XOffset=0mil|YOffset=0mil|HoleType=Round|Shape=RoundedRectangle|*
%AMROUNDEDRECTD26*
21,1,0.06706,0.00000,0,0,90.0*
21,1,0.00000,0.06706,0,0,90.0*
1,1,0.06706,0.00000,0.00000*
1,1,0.06706,0.00000,0.00000*
1,1,0.06706,0.00000,0.00000*
1,1,0.06706,0.00000,0.00000*
%
%ADD26ROUNDEDRECTD26*%
%ADD27C,0.06800*%
%ADD28C,0.08182*%
%ADD29C,0.06304*%
%ADD30R,0.05328X0.05328*%
%ADD31C,0.10839*%
%ADD32R,0.10839X0.10839*%
%ADD33C,0.06737*%
%ADD34R,0.08182X0.08182*%
%ADD35C,0.08083*%
%ADD36C,0.08800*%
%ADD37C,0.05328*%
%ADD38R,0.06304X0.06304*%
%ADD39C,0.12611*%
%ADD40C,0.03300*%
G36*
X200102Y227753D02*
X200098Y227568D01*
X200083Y227383D01*
X200059Y227198D01*
X200024Y227017D01*
X199980Y226835D01*
X199929Y226658D01*
X199866Y226481D01*
X199795Y226312D01*
X199717Y226143D01*
X199626Y225981D01*
X199531Y225824D01*
X199425Y225670D01*
X199311Y225524D01*
X199193Y225383D01*
X199063Y225249D01*
X198929Y225119D01*
X198787Y225001D01*
X198642Y224887D01*
X198488Y224780D01*
X198331Y224686D01*
X198169Y224595D01*
X198000Y224517D01*
X197831Y224446D01*
X197654Y224383D01*
X197476Y224331D01*
X197295Y224288D01*
X197114Y224253D01*
X196929Y224229D01*
X196744Y224213D01*
X196559Y224209D01*
X196374Y224213D01*
X196189Y224229D01*
X196004Y224253D01*
X195823Y224288D01*
X195642Y224331D01*
X195465Y224383D01*
X195287Y224446D01*
X195118Y224517D01*
X194949Y224595D01*
X194787Y224686D01*
X194630Y224780D01*
X194476Y224887D01*
X194331Y225001D01*
X194189Y225119D01*
X194055Y225249D01*
X193925Y225383D01*
X193807Y225524D01*
X193693Y225670D01*
X193587Y225824D01*
X193492Y225981D01*
X193402Y226143D01*
X193323Y226312D01*
X193252Y226481D01*
X193189Y226658D01*
X193138Y226835D01*
X193095Y227017D01*
X193059Y227198D01*
X193035Y227383D01*
X193020Y227568D01*
X193016Y227753D01*
Y237595D01*
X200102D01*
Y227753D01*
D02*
G37*
G36*
X190102D02*
X190099Y227568D01*
X190083Y227383D01*
X190059Y227198D01*
X190024Y227017D01*
X189980Y226835D01*
X189929Y226658D01*
X189866Y226481D01*
X189795Y226312D01*
X189717Y226143D01*
X189626Y225981D01*
X189532Y225824D01*
X189425Y225670D01*
X189311Y225524D01*
X189193Y225383D01*
X189063Y225249D01*
X188929Y225119D01*
X188787Y225001D01*
X188642Y224887D01*
X188488Y224780D01*
X188331Y224686D01*
X188169Y224595D01*
X188000Y224517D01*
X187831Y224446D01*
X187654Y224383D01*
X187476Y224331D01*
X187295Y224288D01*
X187114Y224253D01*
X186929Y224229D01*
X186744Y224213D01*
X186559Y224209D01*
X186374Y224213D01*
X186189Y224229D01*
X186004Y224253D01*
X185823Y224288D01*
X185642Y224331D01*
X185465Y224383D01*
X185287Y224446D01*
X185118Y224517D01*
X184949Y224595D01*
X184787Y224686D01*
X184630Y224780D01*
X184476Y224887D01*
X184331Y225001D01*
X184189Y225119D01*
X184055Y225249D01*
X183925Y225383D01*
X183807Y225524D01*
X183693Y225670D01*
X183587Y225824D01*
X183492Y225981D01*
X183402Y226143D01*
X183323Y226312D01*
X183252Y226481D01*
X183189Y226658D01*
X183138Y226835D01*
X183095Y227017D01*
X183059Y227198D01*
X183036Y227383D01*
X183020Y227568D01*
X183016Y227753D01*
Y237595D01*
X190102D01*
Y227753D01*
D02*
G37*
G36*
X180102Y225328D02*
X180095Y225269D01*
X180087Y225206D01*
X180075Y225147D01*
X180063Y225083D01*
X180043Y225024D01*
X180024Y224965D01*
X180000Y224910D01*
X179973Y224855D01*
X179945Y224800D01*
X179913Y224749D01*
X179878Y224698D01*
X179839Y224646D01*
X179799Y224599D01*
X179756Y224556D01*
X179713Y224513D01*
X179665Y224473D01*
X179614Y224434D01*
X179563Y224398D01*
X179512Y224367D01*
X179457Y224339D01*
X179402Y224312D01*
X179347Y224288D01*
X179287Y224269D01*
X179228Y224249D01*
X179165Y224237D01*
X179106Y224225D01*
X179043Y224217D01*
X178984Y224209D01*
X174134D01*
X174075Y224217D01*
X174012Y224225D01*
X173953Y224237D01*
X173890Y224249D01*
X173831Y224269D01*
X173772Y224288D01*
X173717Y224312D01*
X173661Y224339D01*
X173606Y224367D01*
X173555Y224398D01*
X173504Y224434D01*
X173453Y224473D01*
X173406Y224513D01*
X173362Y224556D01*
X173319Y224599D01*
X173280Y224646D01*
X173240Y224698D01*
X173205Y224749D01*
X173173Y224800D01*
X173146Y224855D01*
X173118Y224910D01*
X173094Y224965D01*
X173075Y225024D01*
X173055Y225083D01*
X173043Y225147D01*
X173031Y225206D01*
X173024Y225269D01*
X173016Y225328D01*
Y237595D01*
X180102D01*
Y225328D01*
D02*
G37*
G36*
X170102Y227753D02*
X170098Y227568D01*
X170083Y227383D01*
X170059Y227198D01*
X170024Y227017D01*
X169980Y226835D01*
X169929Y226658D01*
X169866Y226481D01*
X169795Y226312D01*
X169717Y226143D01*
X169626Y225981D01*
X169532Y225824D01*
X169425Y225670D01*
X169311Y225524D01*
X169193Y225383D01*
X169063Y225249D01*
X168929Y225119D01*
X168787Y225001D01*
X168642Y224887D01*
X168488Y224780D01*
X168331Y224686D01*
X168169Y224595D01*
X168000Y224517D01*
X167831Y224446D01*
X167654Y224383D01*
X167476Y224331D01*
X167295Y224288D01*
X167114Y224253D01*
X166929Y224229D01*
X166744Y224213D01*
X166559Y224209D01*
X166374Y224213D01*
X166189Y224229D01*
X166004Y224253D01*
X165823Y224288D01*
X165642Y224331D01*
X165465Y224383D01*
X165287Y224446D01*
X165118Y224517D01*
X164949Y224595D01*
X164787Y224686D01*
X164630Y224780D01*
X164476Y224887D01*
X164331Y225001D01*
X164189Y225119D01*
X164055Y225249D01*
X163925Y225383D01*
X163807Y225524D01*
X163693Y225670D01*
X163587Y225824D01*
X163492Y225981D01*
X163402Y226143D01*
X163323Y226312D01*
X163252Y226481D01*
X163189Y226658D01*
X163138Y226835D01*
X163094Y227017D01*
X163059Y227198D01*
X163036Y227383D01*
X163020Y227568D01*
X163016Y227753D01*
Y237595D01*
X170102D01*
Y227753D01*
D02*
G37*
G36*
X160102D02*
X160099Y227568D01*
X160083Y227383D01*
X160059Y227198D01*
X160024Y227017D01*
X159980Y226835D01*
X159929Y226658D01*
X159866Y226481D01*
X159795Y226312D01*
X159717Y226143D01*
X159626Y225981D01*
X159531Y225824D01*
X159425Y225670D01*
X159311Y225524D01*
X159193Y225383D01*
X159063Y225249D01*
X158929Y225119D01*
X158787Y225001D01*
X158642Y224887D01*
X158488Y224780D01*
X158331Y224686D01*
X158169Y224595D01*
X158000Y224517D01*
X157831Y224446D01*
X157654Y224383D01*
X157476Y224331D01*
X157295Y224288D01*
X157114Y224253D01*
X156929Y224229D01*
X156744Y224213D01*
X156559Y224209D01*
X156374Y224213D01*
X156189Y224229D01*
X156004Y224253D01*
X155823Y224288D01*
X155642Y224331D01*
X155465Y224383D01*
X155287Y224446D01*
X155118Y224517D01*
X154949Y224595D01*
X154787Y224686D01*
X154630Y224780D01*
X154476Y224887D01*
X154331Y225001D01*
X154189Y225119D01*
X154055Y225249D01*
X153925Y225383D01*
X153807Y225524D01*
X153693Y225670D01*
X153587Y225824D01*
X153492Y225981D01*
X153402Y226143D01*
X153323Y226312D01*
X153252Y226481D01*
X153189Y226658D01*
X153138Y226835D01*
X153094Y227017D01*
X153059Y227198D01*
X153035Y227383D01*
X153020Y227568D01*
X153016Y227753D01*
Y237595D01*
X160102D01*
Y227753D01*
D02*
G37*
G36*
X150102D02*
X150099Y227568D01*
X150083Y227383D01*
X150059Y227198D01*
X150024Y227017D01*
X149980Y226835D01*
X149929Y226658D01*
X149866Y226481D01*
X149795Y226312D01*
X149717Y226143D01*
X149626Y225981D01*
X149531Y225824D01*
X149425Y225670D01*
X149311Y225524D01*
X149193Y225383D01*
X149063Y225249D01*
X148929Y225119D01*
X148787Y225001D01*
X148642Y224887D01*
X148488Y224780D01*
X148331Y224686D01*
X148169Y224595D01*
X148000Y224517D01*
X147831Y224446D01*
X147654Y224383D01*
X147476Y224331D01*
X147295Y224288D01*
X147114Y224253D01*
X146929Y224229D01*
X146744Y224213D01*
X146559Y224209D01*
X146374Y224213D01*
X146189Y224229D01*
X146004Y224253D01*
X145823Y224288D01*
X145642Y224331D01*
X145465Y224383D01*
X145287Y224446D01*
X145118Y224517D01*
X144949Y224595D01*
X144787Y224686D01*
X144630Y224780D01*
X144476Y224887D01*
X144331Y225001D01*
X144189Y225119D01*
X144055Y225249D01*
X143925Y225383D01*
X143807Y225524D01*
X143693Y225670D01*
X143587Y225824D01*
X143492Y225981D01*
X143402Y226143D01*
X143323Y226312D01*
X143252Y226481D01*
X143189Y226658D01*
X143138Y226835D01*
X143095Y227017D01*
X143059Y227198D01*
X143035Y227383D01*
X143020Y227568D01*
X143016Y227753D01*
Y237595D01*
X150102D01*
Y227753D01*
D02*
G37*
G36*
X140102D02*
X140099Y227568D01*
X140083Y227383D01*
X140059Y227198D01*
X140024Y227017D01*
X139980Y226835D01*
X139929Y226658D01*
X139866Y226481D01*
X139795Y226312D01*
X139717Y226143D01*
X139626Y225981D01*
X139532Y225824D01*
X139425Y225670D01*
X139311Y225524D01*
X139193Y225383D01*
X139063Y225249D01*
X138929Y225119D01*
X138787Y225001D01*
X138642Y224887D01*
X138488Y224780D01*
X138331Y224686D01*
X138169Y224595D01*
X138000Y224517D01*
X137831Y224446D01*
X137654Y224383D01*
X137476Y224331D01*
X137295Y224288D01*
X137114Y224253D01*
X136929Y224229D01*
X136744Y224213D01*
X136559Y224209D01*
X136374Y224213D01*
X136189Y224229D01*
X136004Y224253D01*
X135823Y224288D01*
X135642Y224331D01*
X135465Y224383D01*
X135287Y224446D01*
X135118Y224517D01*
X134949Y224595D01*
X134787Y224686D01*
X134630Y224780D01*
X134476Y224887D01*
X134331Y225001D01*
X134189Y225119D01*
X134055Y225249D01*
X133925Y225383D01*
X133807Y225524D01*
X133693Y225670D01*
X133587Y225824D01*
X133492Y225981D01*
X133402Y226143D01*
X133323Y226312D01*
X133252Y226481D01*
X133189Y226658D01*
X133138Y226835D01*
X133095Y227017D01*
X133059Y227198D01*
X133036Y227383D01*
X133020Y227568D01*
X133016Y227753D01*
Y237595D01*
X140102D01*
Y227753D01*
D02*
G37*
G36*
X130102Y225328D02*
X130095Y225269D01*
X130087Y225206D01*
X130075Y225147D01*
X130063Y225083D01*
X130043Y225024D01*
X130024Y224965D01*
X130000Y224910D01*
X129973Y224855D01*
X129945Y224800D01*
X129913Y224749D01*
X129878Y224698D01*
X129839Y224646D01*
X129799Y224599D01*
X129756Y224556D01*
X129713Y224513D01*
X129665Y224473D01*
X129614Y224434D01*
X129563Y224398D01*
X129512Y224367D01*
X129457Y224339D01*
X129402Y224312D01*
X129347Y224288D01*
X129287Y224269D01*
X129228Y224249D01*
X129165Y224237D01*
X129106Y224225D01*
X129043Y224217D01*
X128984Y224209D01*
X124134D01*
X124075Y224217D01*
X124012Y224225D01*
X123953Y224237D01*
X123890Y224249D01*
X123831Y224269D01*
X123772Y224288D01*
X123717Y224312D01*
X123661Y224339D01*
X123606Y224367D01*
X123555Y224398D01*
X123504Y224434D01*
X123453Y224473D01*
X123406Y224513D01*
X123362Y224556D01*
X123319Y224599D01*
X123280Y224646D01*
X123240Y224698D01*
X123205Y224749D01*
X123173Y224800D01*
X123146Y224855D01*
X123118Y224910D01*
X123094Y224965D01*
X123075Y225024D01*
X123055Y225083D01*
X123043Y225147D01*
X123031Y225206D01*
X123024Y225269D01*
X123016Y225328D01*
Y237595D01*
X130102D01*
Y225328D01*
D02*
G37*
G36*
X120102Y227753D02*
X120098Y227568D01*
X120083Y227383D01*
X120059Y227198D01*
X120024Y227017D01*
X119980Y226835D01*
X119929Y226658D01*
X119866Y226481D01*
X119795Y226312D01*
X119717Y226143D01*
X119626Y225981D01*
X119532Y225824D01*
X119425Y225670D01*
X119311Y225524D01*
X119193Y225383D01*
X119063Y225249D01*
X118929Y225119D01*
X118787Y225001D01*
X118642Y224887D01*
X118488Y224780D01*
X118331Y224686D01*
X118169Y224595D01*
X118000Y224517D01*
X117831Y224446D01*
X117654Y224383D01*
X117476Y224331D01*
X117295Y224288D01*
X117114Y224253D01*
X116929Y224229D01*
X116744Y224213D01*
X116559Y224209D01*
X116374Y224213D01*
X116189Y224229D01*
X116004Y224253D01*
X115823Y224288D01*
X115642Y224331D01*
X115465Y224383D01*
X115287Y224446D01*
X115118Y224517D01*
X114949Y224595D01*
X114787Y224686D01*
X114630Y224780D01*
X114476Y224887D01*
X114331Y225001D01*
X114189Y225119D01*
X114055Y225249D01*
X113925Y225383D01*
X113807Y225524D01*
X113693Y225670D01*
X113587Y225824D01*
X113492Y225981D01*
X113402Y226143D01*
X113323Y226312D01*
X113252Y226481D01*
X113189Y226658D01*
X113138Y226835D01*
X113094Y227017D01*
X113059Y227198D01*
X113036Y227383D01*
X113020Y227568D01*
X113016Y227753D01*
Y237595D01*
X120102D01*
Y227753D01*
D02*
G37*
G36*
X110102D02*
X110099Y227568D01*
X110083Y227383D01*
X110059Y227198D01*
X110024Y227017D01*
X109980Y226835D01*
X109929Y226658D01*
X109866Y226481D01*
X109795Y226312D01*
X109717Y226143D01*
X109626Y225981D01*
X109531Y225824D01*
X109425Y225670D01*
X109311Y225524D01*
X109193Y225383D01*
X109063Y225249D01*
X108929Y225119D01*
X108787Y225001D01*
X108642Y224887D01*
X108488Y224780D01*
X108331Y224686D01*
X108169Y224595D01*
X108000Y224517D01*
X107831Y224446D01*
X107654Y224383D01*
X107476Y224331D01*
X107295Y224288D01*
X107114Y224253D01*
X106929Y224229D01*
X106744Y224213D01*
X106559Y224209D01*
X106374Y224213D01*
X106189Y224229D01*
X106004Y224253D01*
X105823Y224288D01*
X105642Y224331D01*
X105465Y224383D01*
X105287Y224446D01*
X105118Y224517D01*
X104949Y224595D01*
X104787Y224686D01*
X104630Y224780D01*
X104476Y224887D01*
X104331Y225001D01*
X104189Y225119D01*
X104055Y225249D01*
X103925Y225383D01*
X103807Y225524D01*
X103693Y225670D01*
X103587Y225824D01*
X103492Y225981D01*
X103402Y226143D01*
X103323Y226312D01*
X103252Y226481D01*
X103189Y226658D01*
X103138Y226835D01*
X103094Y227017D01*
X103059Y227198D01*
X103035Y227383D01*
X103020Y227568D01*
X103016Y227753D01*
Y237595D01*
X110102D01*
Y227753D01*
D02*
G37*
G36*
X100102D02*
X100099Y227568D01*
X100083Y227383D01*
X100059Y227198D01*
X100024Y227017D01*
X99980Y226835D01*
X99929Y226658D01*
X99866Y226481D01*
X99795Y226312D01*
X99717Y226143D01*
X99626Y225981D01*
X99532Y225824D01*
X99425Y225670D01*
X99311Y225524D01*
X99193Y225383D01*
X99063Y225249D01*
X98929Y225119D01*
X98787Y225001D01*
X98642Y224887D01*
X98488Y224780D01*
X98331Y224686D01*
X98169Y224595D01*
X98000Y224517D01*
X97831Y224446D01*
X97654Y224383D01*
X97476Y224331D01*
X97295Y224288D01*
X97114Y224253D01*
X96929Y224229D01*
X96744Y224213D01*
X96559Y224209D01*
X96374Y224213D01*
X96189Y224229D01*
X96004Y224253D01*
X95823Y224288D01*
X95642Y224331D01*
X95465Y224383D01*
X95288Y224446D01*
X95118Y224517D01*
X94949Y224595D01*
X94788Y224686D01*
X94630Y224780D01*
X94476Y224887D01*
X94331Y225001D01*
X94189Y225119D01*
X94055Y225249D01*
X93925Y225383D01*
X93807Y225524D01*
X93693Y225670D01*
X93587Y225824D01*
X93492Y225981D01*
X93402Y226143D01*
X93323Y226312D01*
X93252Y226481D01*
X93189Y226658D01*
X93138Y226835D01*
X93094Y227017D01*
X93059Y227198D01*
X93036Y227383D01*
X93020Y227568D01*
X93016Y227753D01*
Y237595D01*
X100102D01*
Y227753D01*
D02*
G37*
G36*
X90102D02*
X90099Y227568D01*
X90083Y227383D01*
X90059Y227198D01*
X90024Y227017D01*
X89980Y226835D01*
X89929Y226658D01*
X89866Y226481D01*
X89795Y226312D01*
X89717Y226143D01*
X89626Y225981D01*
X89531Y225824D01*
X89425Y225670D01*
X89311Y225524D01*
X89193Y225383D01*
X89063Y225249D01*
X88929Y225119D01*
X88788Y225001D01*
X88642Y224887D01*
X88488Y224780D01*
X88331Y224686D01*
X88169Y224595D01*
X88000Y224517D01*
X87831Y224446D01*
X87654Y224383D01*
X87476Y224331D01*
X87295Y224288D01*
X87114Y224253D01*
X86929Y224229D01*
X86744Y224213D01*
X86559Y224209D01*
X86374Y224213D01*
X86189Y224229D01*
X86004Y224253D01*
X85823Y224288D01*
X85642Y224331D01*
X85465Y224383D01*
X85287Y224446D01*
X85118Y224517D01*
X84949Y224595D01*
X84787Y224686D01*
X84630Y224780D01*
X84476Y224887D01*
X84331Y225001D01*
X84189Y225119D01*
X84055Y225249D01*
X83925Y225383D01*
X83807Y225524D01*
X83693Y225670D01*
X83587Y225824D01*
X83492Y225981D01*
X83402Y226143D01*
X83323Y226312D01*
X83252Y226481D01*
X83189Y226658D01*
X83138Y226835D01*
X83095Y227017D01*
X83059Y227198D01*
X83035Y227383D01*
X83020Y227568D01*
X83016Y227753D01*
Y237595D01*
X90102D01*
Y227753D01*
D02*
G37*
G36*
X80102Y225328D02*
X80094Y225269D01*
X80087Y225206D01*
X80075Y225147D01*
X80063Y225083D01*
X80043Y225024D01*
X80024Y224965D01*
X80000Y224910D01*
X79972Y224855D01*
X79945Y224800D01*
X79913Y224749D01*
X79878Y224698D01*
X79839Y224646D01*
X79799Y224599D01*
X79756Y224556D01*
X79713Y224513D01*
X79665Y224473D01*
X79614Y224434D01*
X79563Y224398D01*
X79512Y224367D01*
X79457Y224339D01*
X79402Y224312D01*
X79347Y224288D01*
X79287Y224269D01*
X79228Y224249D01*
X79165Y224237D01*
X79106Y224225D01*
X79043Y224217D01*
X78984Y224209D01*
X74134D01*
X74075Y224217D01*
X74012Y224225D01*
X73953Y224237D01*
X73890Y224249D01*
X73831Y224269D01*
X73772Y224288D01*
X73717Y224312D01*
X73662Y224339D01*
X73606Y224367D01*
X73555Y224398D01*
X73504Y224434D01*
X73453Y224473D01*
X73406Y224513D01*
X73362Y224556D01*
X73319Y224599D01*
X73280Y224646D01*
X73240Y224698D01*
X73205Y224749D01*
X73173Y224800D01*
X73146Y224855D01*
X73118Y224910D01*
X73094Y224965D01*
X73075Y225024D01*
X73055Y225083D01*
X73043Y225147D01*
X73032Y225206D01*
X73024Y225269D01*
X73016Y225328D01*
Y237595D01*
X80102D01*
Y225328D01*
D02*
G37*
G36*
X70102Y227753D02*
X70099Y227568D01*
X70083Y227383D01*
X70059Y227198D01*
X70024Y227017D01*
X69980Y226835D01*
X69929Y226658D01*
X69866Y226481D01*
X69795Y226312D01*
X69717Y226143D01*
X69626Y225981D01*
X69532Y225824D01*
X69425Y225670D01*
X69311Y225524D01*
X69193Y225383D01*
X69063Y225249D01*
X68929Y225119D01*
X68787Y225001D01*
X68642Y224887D01*
X68488Y224780D01*
X68331Y224686D01*
X68169Y224595D01*
X68000Y224517D01*
X67831Y224446D01*
X67654Y224383D01*
X67476Y224331D01*
X67295Y224288D01*
X67114Y224253D01*
X66929Y224229D01*
X66744Y224213D01*
X66559Y224209D01*
X66374Y224213D01*
X66189Y224229D01*
X66004Y224253D01*
X65823Y224288D01*
X65642Y224331D01*
X65465Y224383D01*
X65288Y224446D01*
X65118Y224517D01*
X64949Y224595D01*
X64788Y224686D01*
X64630Y224780D01*
X64476Y224887D01*
X64331Y225001D01*
X64189Y225119D01*
X64055Y225249D01*
X63925Y225383D01*
X63807Y225524D01*
X63693Y225670D01*
X63587Y225824D01*
X63492Y225981D01*
X63402Y226143D01*
X63323Y226312D01*
X63252Y226481D01*
X63189Y226658D01*
X63138Y226835D01*
X63095Y227017D01*
X63059Y227198D01*
X63036Y227383D01*
X63020Y227568D01*
X63016Y227753D01*
Y237595D01*
X70102D01*
Y227753D01*
D02*
G37*
G36*
X60102D02*
X60098Y227568D01*
X60083Y227383D01*
X60059Y227198D01*
X60024Y227017D01*
X59980Y226835D01*
X59929Y226658D01*
X59866Y226481D01*
X59795Y226312D01*
X59717Y226143D01*
X59626Y225981D01*
X59531Y225824D01*
X59425Y225670D01*
X59311Y225524D01*
X59193Y225383D01*
X59063Y225249D01*
X58929Y225119D01*
X58788Y225001D01*
X58642Y224887D01*
X58488Y224780D01*
X58331Y224686D01*
X58169Y224595D01*
X58000Y224517D01*
X57831Y224446D01*
X57654Y224383D01*
X57476Y224331D01*
X57295Y224288D01*
X57114Y224253D01*
X56929Y224229D01*
X56744Y224213D01*
X56559Y224209D01*
X56374Y224213D01*
X56189Y224229D01*
X56004Y224253D01*
X55823Y224288D01*
X55642Y224331D01*
X55465Y224383D01*
X55287Y224446D01*
X55118Y224517D01*
X54949Y224595D01*
X54787Y224686D01*
X54630Y224780D01*
X54476Y224887D01*
X54331Y225001D01*
X54189Y225119D01*
X54055Y225249D01*
X53925Y225383D01*
X53807Y225524D01*
X53693Y225670D01*
X53587Y225824D01*
X53492Y225981D01*
X53402Y226143D01*
X53323Y226312D01*
X53252Y226481D01*
X53189Y226658D01*
X53138Y226835D01*
X53095Y227017D01*
X53059Y227198D01*
X53035Y227383D01*
X53020Y227568D01*
X53016Y227753D01*
Y237595D01*
X60102D01*
Y227753D01*
D02*
G37*
G36*
X50102D02*
X50099Y227568D01*
X50083Y227383D01*
X50059Y227198D01*
X50024Y227017D01*
X49980Y226835D01*
X49929Y226658D01*
X49866Y226481D01*
X49795Y226312D01*
X49717Y226143D01*
X49626Y225981D01*
X49531Y225824D01*
X49425Y225670D01*
X49311Y225524D01*
X49193Y225383D01*
X49063Y225249D01*
X48929Y225119D01*
X48788Y225001D01*
X48642Y224887D01*
X48488Y224780D01*
X48331Y224686D01*
X48169Y224595D01*
X48000Y224517D01*
X47831Y224446D01*
X47654Y224383D01*
X47476Y224331D01*
X47295Y224288D01*
X47114Y224253D01*
X46929Y224229D01*
X46744Y224213D01*
X46559Y224209D01*
X46374Y224213D01*
X46189Y224229D01*
X46004Y224253D01*
X45823Y224288D01*
X45642Y224331D01*
X45465Y224383D01*
X45287Y224446D01*
X45118Y224517D01*
X44949Y224595D01*
X44787Y224686D01*
X44630Y224780D01*
X44476Y224887D01*
X44331Y225001D01*
X44189Y225119D01*
X44055Y225249D01*
X43925Y225383D01*
X43807Y225524D01*
X43693Y225670D01*
X43587Y225824D01*
X43492Y225981D01*
X43402Y226143D01*
X43323Y226312D01*
X43252Y226481D01*
X43189Y226658D01*
X43138Y226835D01*
X43095Y227017D01*
X43059Y227198D01*
X43036Y227383D01*
X43020Y227568D01*
X43016Y227753D01*
Y237595D01*
X50102D01*
Y227753D01*
D02*
G37*
G36*
X40102D02*
X40099Y227568D01*
X40083Y227383D01*
X40059Y227198D01*
X40024Y227017D01*
X39980Y226835D01*
X39929Y226658D01*
X39866Y226481D01*
X39795Y226312D01*
X39717Y226143D01*
X39626Y225981D01*
X39531Y225824D01*
X39425Y225670D01*
X39311Y225524D01*
X39193Y225383D01*
X39063Y225249D01*
X38929Y225119D01*
X38787Y225001D01*
X38642Y224887D01*
X38488Y224780D01*
X38331Y224686D01*
X38169Y224595D01*
X38000Y224517D01*
X37831Y224446D01*
X37654Y224383D01*
X37476Y224331D01*
X37295Y224288D01*
X37114Y224253D01*
X36929Y224229D01*
X36744Y224213D01*
X36559Y224209D01*
X36374Y224213D01*
X36189Y224229D01*
X36004Y224253D01*
X35823Y224288D01*
X35642Y224331D01*
X35465Y224383D01*
X35287Y224446D01*
X35118Y224517D01*
X34949Y224595D01*
X34787Y224686D01*
X34630Y224780D01*
X34476Y224887D01*
X34331Y225001D01*
X34189Y225119D01*
X34055Y225249D01*
X33925Y225383D01*
X33807Y225524D01*
X33693Y225670D01*
X33587Y225824D01*
X33492Y225981D01*
X33402Y226143D01*
X33323Y226312D01*
X33252Y226481D01*
X33189Y226658D01*
X33138Y226835D01*
X33094Y227017D01*
X33059Y227198D01*
X33035Y227383D01*
X33020Y227568D01*
X33016Y227753D01*
Y237595D01*
X40102D01*
Y227753D01*
D02*
G37*
G36*
X30102Y225328D02*
X30095Y225269D01*
X30087Y225206D01*
X30075Y225147D01*
X30063Y225083D01*
X30043Y225024D01*
X30024Y224965D01*
X30000Y224910D01*
X29972Y224855D01*
X29945Y224800D01*
X29913Y224749D01*
X29878Y224698D01*
X29839Y224646D01*
X29799Y224599D01*
X29756Y224556D01*
X29713Y224513D01*
X29665Y224473D01*
X29614Y224434D01*
X29563Y224398D01*
X29512Y224367D01*
X29457Y224339D01*
X29402Y224312D01*
X29346Y224288D01*
X29287Y224269D01*
X29228Y224249D01*
X29165Y224237D01*
X29106Y224225D01*
X29043Y224217D01*
X28984Y224209D01*
X24134D01*
X24075Y224217D01*
X24012Y224225D01*
X23953Y224237D01*
X23890Y224249D01*
X23831Y224269D01*
X23772Y224288D01*
X23717Y224312D01*
X23662Y224339D01*
X23606Y224367D01*
X23555Y224398D01*
X23504Y224434D01*
X23453Y224473D01*
X23406Y224513D01*
X23362Y224556D01*
X23319Y224599D01*
X23280Y224646D01*
X23240Y224698D01*
X23205Y224749D01*
X23173Y224800D01*
X23146Y224855D01*
X23118Y224910D01*
X23095Y224965D01*
X23075Y225024D01*
X23055Y225083D01*
X23043Y225147D01*
X23031Y225206D01*
X23024Y225269D01*
X23016Y225328D01*
Y237595D01*
X30102D01*
Y225328D01*
D02*
G37*
G36*
X20102Y227753D02*
X20098Y227568D01*
X20083Y227383D01*
X20059Y227198D01*
X20024Y227017D01*
X19980Y226835D01*
X19929Y226658D01*
X19866Y226481D01*
X19795Y226312D01*
X19717Y226143D01*
X19626Y225981D01*
X19532Y225824D01*
X19425Y225670D01*
X19311Y225524D01*
X19193Y225383D01*
X19063Y225249D01*
X18929Y225119D01*
X18788Y225001D01*
X18642Y224887D01*
X18488Y224780D01*
X18331Y224686D01*
X18169Y224595D01*
X18000Y224517D01*
X17831Y224446D01*
X17654Y224383D01*
X17476Y224331D01*
X17295Y224288D01*
X17114Y224253D01*
X16929Y224229D01*
X16744Y224213D01*
X16559Y224209D01*
X16374Y224213D01*
X16189Y224229D01*
X16004Y224253D01*
X15823Y224288D01*
X15642Y224331D01*
X15465Y224383D01*
X15288Y224446D01*
X15118Y224517D01*
X14949Y224595D01*
X14787Y224686D01*
X14630Y224780D01*
X14476Y224887D01*
X14331Y225001D01*
X14189Y225119D01*
X14055Y225249D01*
X13925Y225383D01*
X13807Y225524D01*
X13693Y225670D01*
X13587Y225824D01*
X13492Y225981D01*
X13402Y226143D01*
X13323Y226312D01*
X13252Y226481D01*
X13189Y226658D01*
X13138Y226835D01*
X13094Y227017D01*
X13059Y227198D01*
X13036Y227383D01*
X13020Y227568D01*
X13016Y227753D01*
Y237595D01*
X20102D01*
Y227753D01*
D02*
G37*
G36*
X10102D02*
X10098Y227568D01*
X10083Y227383D01*
X10059Y227198D01*
X10024Y227017D01*
X9980Y226835D01*
X9929Y226658D01*
X9866Y226481D01*
X9795Y226312D01*
X9717Y226143D01*
X9626Y225981D01*
X9532Y225824D01*
X9425Y225670D01*
X9311Y225524D01*
X9193Y225383D01*
X9063Y225249D01*
X8929Y225119D01*
X8787Y225001D01*
X8642Y224887D01*
X8488Y224780D01*
X8331Y224686D01*
X8169Y224595D01*
X8000Y224517D01*
X7831Y224446D01*
X7654Y224383D01*
X7476Y224331D01*
X7295Y224288D01*
X7114Y224253D01*
X6929Y224229D01*
X6744Y224213D01*
X6559Y224209D01*
X6374Y224213D01*
X6189Y224229D01*
X6004Y224253D01*
X5823Y224288D01*
X5642Y224331D01*
X5465Y224383D01*
X5287Y224446D01*
X5118Y224517D01*
X4949Y224595D01*
X4787Y224686D01*
X4630Y224780D01*
X4476Y224887D01*
X4331Y225001D01*
X4189Y225119D01*
X4055Y225249D01*
X3925Y225383D01*
X3807Y225524D01*
X3693Y225670D01*
X3587Y225824D01*
X3492Y225981D01*
X3402Y226143D01*
X3323Y226312D01*
X3252Y226481D01*
X3189Y226658D01*
X3138Y226835D01*
X3094Y227017D01*
X3059Y227198D01*
X3036Y227383D01*
X3020Y227568D01*
X3016Y227753D01*
Y237595D01*
X10102D01*
Y227753D01*
D02*
G37*
G36*
X205496Y199209D02*
X195654D01*
X195469Y199213D01*
X195283Y199229D01*
X195098Y199253D01*
X194917Y199288D01*
X194736Y199331D01*
X194559Y199383D01*
X194382Y199446D01*
X194213Y199517D01*
X194043Y199595D01*
X193882Y199686D01*
X193725Y199780D01*
X193571Y199887D01*
X193425Y200001D01*
X193283Y200119D01*
X193150Y200249D01*
X193020Y200383D01*
X192902Y200524D01*
X192787Y200670D01*
X192681Y200824D01*
X192587Y200981D01*
X192496Y201143D01*
X192417Y201312D01*
X192347Y201481D01*
X192283Y201658D01*
X192232Y201835D01*
X192189Y202017D01*
X192154Y202198D01*
X192130Y202383D01*
X192114Y202568D01*
X192110Y202753D01*
X192114Y202938D01*
X192130Y203123D01*
X192154Y203308D01*
X192189Y203489D01*
X192232Y203670D01*
X192283Y203847D01*
X192347Y204025D01*
X192417Y204194D01*
X192496Y204363D01*
X192587Y204524D01*
X192681Y204682D01*
X192787Y204836D01*
X192902Y204981D01*
X193020Y205123D01*
X193150Y205257D01*
X193283Y205387D01*
X193425Y205505D01*
X193571Y205619D01*
X193725Y205725D01*
X193882Y205820D01*
X194043Y205910D01*
X194213Y205989D01*
X194382Y206060D01*
X194559Y206123D01*
X194736Y206174D01*
X194917Y206217D01*
X195098Y206253D01*
X195283Y206276D01*
X195469Y206292D01*
X195654Y206296D01*
X205496D01*
Y199209D01*
D02*
G37*
G36*
Y189209D02*
X193228D01*
X193169Y189217D01*
X193106Y189225D01*
X193047Y189237D01*
X192984Y189249D01*
X192925Y189269D01*
X192866Y189288D01*
X192811Y189312D01*
X192756Y189339D01*
X192701Y189367D01*
X192650Y189399D01*
X192598Y189434D01*
X192547Y189473D01*
X192500Y189513D01*
X192457Y189556D01*
X192413Y189599D01*
X192374Y189646D01*
X192335Y189698D01*
X192299Y189749D01*
X192268Y189800D01*
X192240Y189855D01*
X192213Y189910D01*
X192189Y189965D01*
X192169Y190024D01*
X192150Y190084D01*
X192138Y190147D01*
X192126Y190206D01*
X192118Y190269D01*
X192110Y190328D01*
Y195178D01*
X192118Y195237D01*
X192126Y195300D01*
X192138Y195359D01*
X192150Y195422D01*
X192169Y195481D01*
X192189Y195540D01*
X192213Y195595D01*
X192240Y195650D01*
X192268Y195706D01*
X192299Y195757D01*
X192335Y195808D01*
X192374Y195859D01*
X192413Y195906D01*
X192457Y195950D01*
X192500Y195993D01*
X192547Y196032D01*
X192598Y196072D01*
X192650Y196107D01*
X192701Y196139D01*
X192756Y196166D01*
X192811Y196194D01*
X192866Y196217D01*
X192925Y196237D01*
X192984Y196257D01*
X193047Y196269D01*
X193106Y196280D01*
X193169Y196288D01*
X193228Y196296D01*
X205496D01*
Y189209D01*
D02*
G37*
G36*
Y179209D02*
X195654D01*
X195469Y179213D01*
X195283Y179229D01*
X195098Y179253D01*
X194917Y179288D01*
X194736Y179332D01*
X194559Y179383D01*
X194382Y179446D01*
X194213Y179517D01*
X194043Y179595D01*
X193882Y179686D01*
X193725Y179780D01*
X193571Y179887D01*
X193425Y180001D01*
X193283Y180119D01*
X193150Y180249D01*
X193020Y180383D01*
X192902Y180525D01*
X192787Y180670D01*
X192681Y180824D01*
X192587Y180981D01*
X192496Y181143D01*
X192417Y181312D01*
X192347Y181481D01*
X192283Y181658D01*
X192232Y181835D01*
X192189Y182017D01*
X192154Y182198D01*
X192130Y182383D01*
X192114Y182568D01*
X192110Y182753D01*
X192114Y182938D01*
X192130Y183123D01*
X192154Y183308D01*
X192189Y183489D01*
X192232Y183670D01*
X192283Y183847D01*
X192347Y184025D01*
X192417Y184194D01*
X192496Y184363D01*
X192587Y184525D01*
X192681Y184682D01*
X192787Y184836D01*
X192902Y184981D01*
X193020Y185123D01*
X193150Y185257D01*
X193283Y185387D01*
X193425Y185505D01*
X193571Y185619D01*
X193725Y185725D01*
X193882Y185820D01*
X194043Y185910D01*
X194213Y185989D01*
X194382Y186060D01*
X194559Y186123D01*
X194736Y186174D01*
X194917Y186217D01*
X195098Y186253D01*
X195283Y186276D01*
X195469Y186292D01*
X195654Y186296D01*
X205496D01*
Y179209D01*
D02*
G37*
G36*
X196744Y161292D02*
X196929Y161276D01*
X197114Y161253D01*
X197295Y161217D01*
X197476Y161174D01*
X197654Y161123D01*
X197831Y161060D01*
X198000Y160989D01*
X198169Y160910D01*
X198331Y160820D01*
X198488Y160725D01*
X198642Y160619D01*
X198787Y160505D01*
X198929Y160387D01*
X199063Y160257D01*
X199193Y160123D01*
X199311Y159981D01*
X199425Y159836D01*
X199531Y159682D01*
X199626Y159525D01*
X199717Y159363D01*
X199795Y159194D01*
X199866Y159025D01*
X199929Y158847D01*
X199980Y158670D01*
X200024Y158489D01*
X200059Y158308D01*
X200083Y158123D01*
X200098Y157938D01*
X200102Y157753D01*
Y147910D01*
X193016D01*
Y157753D01*
X193020Y157938D01*
X193035Y158123D01*
X193059Y158308D01*
X193095Y158489D01*
X193138Y158670D01*
X193189Y158847D01*
X193252Y159025D01*
X193323Y159194D01*
X193402Y159363D01*
X193492Y159525D01*
X193587Y159682D01*
X193693Y159836D01*
X193807Y159981D01*
X193925Y160123D01*
X194055Y160257D01*
X194189Y160387D01*
X194331Y160505D01*
X194476Y160619D01*
X194630Y160725D01*
X194787Y160820D01*
X194949Y160910D01*
X195118Y160989D01*
X195287Y161060D01*
X195465Y161123D01*
X195642Y161174D01*
X195823Y161217D01*
X196004Y161253D01*
X196189Y161276D01*
X196374Y161292D01*
X196559Y161296D01*
X196744Y161292D01*
D02*
G37*
G36*
X186744D02*
X186929Y161276D01*
X187114Y161253D01*
X187295Y161217D01*
X187476Y161174D01*
X187654Y161123D01*
X187831Y161060D01*
X188000Y160989D01*
X188169Y160910D01*
X188331Y160820D01*
X188488Y160725D01*
X188642Y160619D01*
X188787Y160505D01*
X188929Y160387D01*
X189063Y160257D01*
X189193Y160123D01*
X189311Y159981D01*
X189425Y159836D01*
X189532Y159682D01*
X189626Y159525D01*
X189717Y159363D01*
X189795Y159194D01*
X189866Y159025D01*
X189929Y158847D01*
X189980Y158670D01*
X190024Y158489D01*
X190059Y158308D01*
X190083Y158123D01*
X190099Y157938D01*
X190102Y157753D01*
Y147910D01*
X183016D01*
Y157753D01*
X183020Y157938D01*
X183036Y158123D01*
X183059Y158308D01*
X183095Y158489D01*
X183138Y158670D01*
X183189Y158847D01*
X183252Y159025D01*
X183323Y159194D01*
X183402Y159363D01*
X183492Y159525D01*
X183587Y159682D01*
X183693Y159836D01*
X183807Y159981D01*
X183925Y160123D01*
X184055Y160257D01*
X184189Y160387D01*
X184331Y160505D01*
X184476Y160619D01*
X184630Y160725D01*
X184787Y160820D01*
X184949Y160910D01*
X185118Y160989D01*
X185287Y161060D01*
X185465Y161123D01*
X185642Y161174D01*
X185823Y161217D01*
X186004Y161253D01*
X186189Y161276D01*
X186374Y161292D01*
X186559Y161296D01*
X186744Y161292D01*
D02*
G37*
G36*
X179043Y161288D02*
X179106Y161280D01*
X179165Y161269D01*
X179228Y161257D01*
X179287Y161237D01*
X179347Y161217D01*
X179402Y161194D01*
X179457Y161166D01*
X179512Y161139D01*
X179563Y161107D01*
X179614Y161072D01*
X179665Y161032D01*
X179713Y160993D01*
X179756Y160950D01*
X179799Y160906D01*
X179839Y160859D01*
X179878Y160808D01*
X179913Y160757D01*
X179945Y160706D01*
X179973Y160650D01*
X180000Y160595D01*
X180024Y160540D01*
X180043Y160481D01*
X180063Y160422D01*
X180075Y160359D01*
X180087Y160300D01*
X180095Y160237D01*
X180102Y160178D01*
Y147910D01*
X173016D01*
Y160178D01*
X173024Y160237D01*
X173031Y160300D01*
X173043Y160359D01*
X173055Y160422D01*
X173075Y160481D01*
X173094Y160540D01*
X173118Y160595D01*
X173146Y160650D01*
X173173Y160706D01*
X173205Y160757D01*
X173240Y160808D01*
X173280Y160859D01*
X173319Y160906D01*
X173362Y160950D01*
X173406Y160993D01*
X173453Y161032D01*
X173504Y161072D01*
X173555Y161107D01*
X173606Y161139D01*
X173661Y161166D01*
X173717Y161194D01*
X173772Y161217D01*
X173831Y161237D01*
X173890Y161257D01*
X173953Y161269D01*
X174012Y161280D01*
X174075Y161288D01*
X174134Y161296D01*
X178984D01*
X179043Y161288D01*
D02*
G37*
G36*
X166744Y161292D02*
X166929Y161276D01*
X167114Y161253D01*
X167295Y161217D01*
X167476Y161174D01*
X167654Y161123D01*
X167831Y161060D01*
X168000Y160989D01*
X168169Y160910D01*
X168331Y160820D01*
X168488Y160725D01*
X168642Y160619D01*
X168787Y160505D01*
X168929Y160387D01*
X169063Y160257D01*
X169193Y160123D01*
X169311Y159981D01*
X169425Y159836D01*
X169532Y159682D01*
X169626Y159525D01*
X169717Y159363D01*
X169795Y159194D01*
X169866Y159025D01*
X169929Y158847D01*
X169980Y158670D01*
X170024Y158489D01*
X170059Y158308D01*
X170083Y158123D01*
X170098Y157938D01*
X170102Y157753D01*
Y147910D01*
X163016D01*
Y157753D01*
X163020Y157938D01*
X163036Y158123D01*
X163059Y158308D01*
X163094Y158489D01*
X163138Y158670D01*
X163189Y158847D01*
X163252Y159025D01*
X163323Y159194D01*
X163402Y159363D01*
X163492Y159525D01*
X163587Y159682D01*
X163693Y159836D01*
X163807Y159981D01*
X163925Y160123D01*
X164055Y160257D01*
X164189Y160387D01*
X164331Y160505D01*
X164476Y160619D01*
X164630Y160725D01*
X164787Y160820D01*
X164949Y160910D01*
X165118Y160989D01*
X165287Y161060D01*
X165465Y161123D01*
X165642Y161174D01*
X165823Y161217D01*
X166004Y161253D01*
X166189Y161276D01*
X166374Y161292D01*
X166559Y161296D01*
X166744Y161292D01*
D02*
G37*
G36*
X156744D02*
X156929Y161276D01*
X157114Y161253D01*
X157295Y161217D01*
X157476Y161174D01*
X157654Y161123D01*
X157831Y161060D01*
X158000Y160989D01*
X158169Y160910D01*
X158331Y160820D01*
X158488Y160725D01*
X158642Y160619D01*
X158787Y160505D01*
X158929Y160387D01*
X159063Y160257D01*
X159193Y160123D01*
X159311Y159981D01*
X159425Y159836D01*
X159531Y159682D01*
X159626Y159525D01*
X159717Y159363D01*
X159795Y159194D01*
X159866Y159025D01*
X159929Y158847D01*
X159980Y158670D01*
X160024Y158489D01*
X160059Y158308D01*
X160083Y158123D01*
X160099Y157938D01*
X160102Y157753D01*
Y147910D01*
X153016D01*
Y157753D01*
X153020Y157938D01*
X153035Y158123D01*
X153059Y158308D01*
X153094Y158489D01*
X153138Y158670D01*
X153189Y158847D01*
X153252Y159025D01*
X153323Y159194D01*
X153402Y159363D01*
X153492Y159525D01*
X153587Y159682D01*
X153693Y159836D01*
X153807Y159981D01*
X153925Y160123D01*
X154055Y160257D01*
X154189Y160387D01*
X154331Y160505D01*
X154476Y160619D01*
X154630Y160725D01*
X154787Y160820D01*
X154949Y160910D01*
X155118Y160989D01*
X155287Y161060D01*
X155465Y161123D01*
X155642Y161174D01*
X155823Y161217D01*
X156004Y161253D01*
X156189Y161276D01*
X156374Y161292D01*
X156559Y161296D01*
X156744Y161292D01*
D02*
G37*
G36*
X146744D02*
X146929Y161276D01*
X147114Y161253D01*
X147295Y161217D01*
X147476Y161174D01*
X147654Y161123D01*
X147831Y161060D01*
X148000Y160989D01*
X148169Y160910D01*
X148331Y160820D01*
X148488Y160725D01*
X148642Y160619D01*
X148787Y160505D01*
X148929Y160387D01*
X149063Y160257D01*
X149193Y160123D01*
X149311Y159981D01*
X149425Y159836D01*
X149531Y159682D01*
X149626Y159525D01*
X149717Y159363D01*
X149795Y159194D01*
X149866Y159025D01*
X149929Y158847D01*
X149980Y158670D01*
X150024Y158489D01*
X150059Y158308D01*
X150083Y158123D01*
X150099Y157938D01*
X150102Y157753D01*
Y147910D01*
X143016D01*
Y157753D01*
X143020Y157938D01*
X143035Y158123D01*
X143059Y158308D01*
X143095Y158489D01*
X143138Y158670D01*
X143189Y158847D01*
X143252Y159025D01*
X143323Y159194D01*
X143402Y159363D01*
X143492Y159525D01*
X143587Y159682D01*
X143693Y159836D01*
X143807Y159981D01*
X143925Y160123D01*
X144055Y160257D01*
X144189Y160387D01*
X144331Y160505D01*
X144476Y160619D01*
X144630Y160725D01*
X144787Y160820D01*
X144949Y160910D01*
X145118Y160989D01*
X145287Y161060D01*
X145465Y161123D01*
X145642Y161174D01*
X145823Y161217D01*
X146004Y161253D01*
X146189Y161276D01*
X146374Y161292D01*
X146559Y161296D01*
X146744Y161292D01*
D02*
G37*
G36*
X136744D02*
X136929Y161276D01*
X137114Y161253D01*
X137295Y161217D01*
X137476Y161174D01*
X137654Y161123D01*
X137831Y161060D01*
X138000Y160989D01*
X138169Y160910D01*
X138331Y160820D01*
X138488Y160725D01*
X138642Y160619D01*
X138787Y160505D01*
X138929Y160387D01*
X139063Y160257D01*
X139193Y160123D01*
X139311Y159981D01*
X139425Y159836D01*
X139532Y159682D01*
X139626Y159525D01*
X139717Y159363D01*
X139795Y159194D01*
X139866Y159025D01*
X139929Y158847D01*
X139980Y158670D01*
X140024Y158489D01*
X140059Y158308D01*
X140083Y158123D01*
X140099Y157938D01*
X140102Y157753D01*
Y147910D01*
X133016D01*
Y157753D01*
X133020Y157938D01*
X133036Y158123D01*
X133059Y158308D01*
X133095Y158489D01*
X133138Y158670D01*
X133189Y158847D01*
X133252Y159025D01*
X133323Y159194D01*
X133402Y159363D01*
X133492Y159525D01*
X133587Y159682D01*
X133693Y159836D01*
X133807Y159981D01*
X133925Y160123D01*
X134055Y160257D01*
X134189Y160387D01*
X134331Y160505D01*
X134476Y160619D01*
X134630Y160725D01*
X134787Y160820D01*
X134949Y160910D01*
X135118Y160989D01*
X135287Y161060D01*
X135465Y161123D01*
X135642Y161174D01*
X135823Y161217D01*
X136004Y161253D01*
X136189Y161276D01*
X136374Y161292D01*
X136559Y161296D01*
X136744Y161292D01*
D02*
G37*
G36*
X129043Y161288D02*
X129106Y161280D01*
X129165Y161269D01*
X129228Y161257D01*
X129287Y161237D01*
X129347Y161217D01*
X129402Y161194D01*
X129457Y161166D01*
X129512Y161139D01*
X129563Y161107D01*
X129614Y161072D01*
X129665Y161032D01*
X129713Y160993D01*
X129756Y160950D01*
X129799Y160906D01*
X129839Y160859D01*
X129878Y160808D01*
X129913Y160757D01*
X129945Y160706D01*
X129973Y160650D01*
X130000Y160595D01*
X130024Y160540D01*
X130043Y160481D01*
X130063Y160422D01*
X130075Y160359D01*
X130087Y160300D01*
X130095Y160237D01*
X130102Y160178D01*
Y147910D01*
X123016D01*
Y160178D01*
X123024Y160237D01*
X123031Y160300D01*
X123043Y160359D01*
X123055Y160422D01*
X123075Y160481D01*
X123094Y160540D01*
X123118Y160595D01*
X123146Y160650D01*
X123173Y160706D01*
X123205Y160757D01*
X123240Y160808D01*
X123280Y160859D01*
X123319Y160906D01*
X123362Y160950D01*
X123406Y160993D01*
X123453Y161032D01*
X123504Y161072D01*
X123555Y161107D01*
X123606Y161139D01*
X123661Y161166D01*
X123717Y161194D01*
X123772Y161217D01*
X123831Y161237D01*
X123890Y161257D01*
X123953Y161269D01*
X124012Y161280D01*
X124075Y161288D01*
X124134Y161296D01*
X128984D01*
X129043Y161288D01*
D02*
G37*
G36*
X116744Y161292D02*
X116929Y161276D01*
X117114Y161253D01*
X117295Y161217D01*
X117476Y161174D01*
X117654Y161123D01*
X117831Y161060D01*
X118000Y160989D01*
X118169Y160910D01*
X118331Y160820D01*
X118488Y160725D01*
X118642Y160619D01*
X118787Y160505D01*
X118929Y160387D01*
X119063Y160257D01*
X119193Y160123D01*
X119311Y159981D01*
X119425Y159836D01*
X119532Y159682D01*
X119626Y159525D01*
X119717Y159363D01*
X119795Y159194D01*
X119866Y159025D01*
X119929Y158847D01*
X119980Y158670D01*
X120024Y158489D01*
X120059Y158308D01*
X120083Y158123D01*
X120098Y157938D01*
X120102Y157753D01*
Y147910D01*
X113016D01*
Y157753D01*
X113020Y157938D01*
X113036Y158123D01*
X113059Y158308D01*
X113094Y158489D01*
X113138Y158670D01*
X113189Y158847D01*
X113252Y159025D01*
X113323Y159194D01*
X113402Y159363D01*
X113492Y159525D01*
X113587Y159682D01*
X113693Y159836D01*
X113807Y159981D01*
X113925Y160123D01*
X114055Y160257D01*
X114189Y160387D01*
X114331Y160505D01*
X114476Y160619D01*
X114630Y160725D01*
X114787Y160820D01*
X114949Y160910D01*
X115118Y160989D01*
X115287Y161060D01*
X115465Y161123D01*
X115642Y161174D01*
X115823Y161217D01*
X116004Y161253D01*
X116189Y161276D01*
X116374Y161292D01*
X116559Y161296D01*
X116744Y161292D01*
D02*
G37*
G36*
X106744D02*
X106929Y161276D01*
X107114Y161253D01*
X107295Y161217D01*
X107476Y161174D01*
X107654Y161123D01*
X107831Y161060D01*
X108000Y160989D01*
X108169Y160910D01*
X108331Y160820D01*
X108488Y160725D01*
X108642Y160619D01*
X108787Y160505D01*
X108929Y160387D01*
X109063Y160257D01*
X109193Y160123D01*
X109311Y159981D01*
X109425Y159836D01*
X109531Y159682D01*
X109626Y159525D01*
X109717Y159363D01*
X109795Y159194D01*
X109866Y159025D01*
X109929Y158847D01*
X109980Y158670D01*
X110024Y158489D01*
X110059Y158308D01*
X110083Y158123D01*
X110099Y157938D01*
X110102Y157753D01*
Y147910D01*
X103016D01*
Y157753D01*
X103020Y157938D01*
X103035Y158123D01*
X103059Y158308D01*
X103094Y158489D01*
X103138Y158670D01*
X103189Y158847D01*
X103252Y159025D01*
X103323Y159194D01*
X103402Y159363D01*
X103492Y159525D01*
X103587Y159682D01*
X103693Y159836D01*
X103807Y159981D01*
X103925Y160123D01*
X104055Y160257D01*
X104189Y160387D01*
X104331Y160505D01*
X104476Y160619D01*
X104630Y160725D01*
X104787Y160820D01*
X104949Y160910D01*
X105118Y160989D01*
X105287Y161060D01*
X105465Y161123D01*
X105642Y161174D01*
X105823Y161217D01*
X106004Y161253D01*
X106189Y161276D01*
X106374Y161292D01*
X106559Y161296D01*
X106744Y161292D01*
D02*
G37*
G36*
X96744D02*
X96929Y161276D01*
X97114Y161253D01*
X97295Y161217D01*
X97476Y161174D01*
X97654Y161123D01*
X97831Y161060D01*
X98000Y160989D01*
X98169Y160910D01*
X98331Y160820D01*
X98488Y160725D01*
X98642Y160619D01*
X98787Y160505D01*
X98929Y160387D01*
X99063Y160257D01*
X99193Y160123D01*
X99311Y159981D01*
X99425Y159836D01*
X99532Y159682D01*
X99626Y159525D01*
X99717Y159363D01*
X99795Y159194D01*
X99866Y159025D01*
X99929Y158847D01*
X99980Y158670D01*
X100024Y158489D01*
X100059Y158308D01*
X100083Y158123D01*
X100099Y157938D01*
X100102Y157753D01*
Y147910D01*
X93016D01*
Y157753D01*
X93020Y157938D01*
X93036Y158123D01*
X93059Y158308D01*
X93094Y158489D01*
X93138Y158670D01*
X93189Y158847D01*
X93252Y159025D01*
X93323Y159194D01*
X93402Y159363D01*
X93492Y159525D01*
X93587Y159682D01*
X93693Y159836D01*
X93807Y159981D01*
X93925Y160123D01*
X94055Y160257D01*
X94189Y160387D01*
X94331Y160505D01*
X94476Y160619D01*
X94630Y160725D01*
X94788Y160820D01*
X94949Y160910D01*
X95118Y160989D01*
X95288Y161060D01*
X95465Y161123D01*
X95642Y161174D01*
X95823Y161217D01*
X96004Y161253D01*
X96189Y161276D01*
X96374Y161292D01*
X96559Y161296D01*
X96744Y161292D01*
D02*
G37*
G36*
X86744D02*
X86929Y161276D01*
X87114Y161253D01*
X87295Y161217D01*
X87476Y161174D01*
X87654Y161123D01*
X87831Y161060D01*
X88000Y160989D01*
X88169Y160910D01*
X88331Y160820D01*
X88488Y160725D01*
X88642Y160619D01*
X88788Y160505D01*
X88929Y160387D01*
X89063Y160257D01*
X89193Y160123D01*
X89311Y159981D01*
X89425Y159836D01*
X89531Y159682D01*
X89626Y159525D01*
X89717Y159363D01*
X89795Y159194D01*
X89866Y159025D01*
X89929Y158847D01*
X89980Y158670D01*
X90024Y158489D01*
X90059Y158308D01*
X90083Y158123D01*
X90099Y157938D01*
X90102Y157753D01*
Y147910D01*
X83016D01*
Y157753D01*
X83020Y157938D01*
X83035Y158123D01*
X83059Y158308D01*
X83095Y158489D01*
X83138Y158670D01*
X83189Y158847D01*
X83252Y159025D01*
X83323Y159194D01*
X83402Y159363D01*
X83492Y159525D01*
X83587Y159682D01*
X83693Y159836D01*
X83807Y159981D01*
X83925Y160123D01*
X84055Y160257D01*
X84189Y160387D01*
X84331Y160505D01*
X84476Y160619D01*
X84630Y160725D01*
X84787Y160820D01*
X84949Y160910D01*
X85118Y160989D01*
X85287Y161060D01*
X85465Y161123D01*
X85642Y161174D01*
X85823Y161217D01*
X86004Y161253D01*
X86189Y161276D01*
X86374Y161292D01*
X86559Y161296D01*
X86744Y161292D01*
D02*
G37*
G36*
X79043Y161288D02*
X79106Y161280D01*
X79165Y161269D01*
X79228Y161257D01*
X79287Y161237D01*
X79347Y161217D01*
X79402Y161194D01*
X79457Y161166D01*
X79512Y161139D01*
X79563Y161107D01*
X79614Y161072D01*
X79665Y161032D01*
X79713Y160993D01*
X79756Y160950D01*
X79799Y160906D01*
X79839Y160859D01*
X79878Y160808D01*
X79913Y160757D01*
X79945Y160706D01*
X79972Y160650D01*
X80000Y160595D01*
X80024Y160540D01*
X80043Y160481D01*
X80063Y160422D01*
X80075Y160359D01*
X80087Y160300D01*
X80094Y160237D01*
X80102Y160178D01*
Y147910D01*
X73016D01*
Y160178D01*
X73024Y160237D01*
X73032Y160300D01*
X73043Y160359D01*
X73055Y160422D01*
X73075Y160481D01*
X73094Y160540D01*
X73118Y160595D01*
X73146Y160650D01*
X73173Y160706D01*
X73205Y160757D01*
X73240Y160808D01*
X73280Y160859D01*
X73319Y160906D01*
X73362Y160950D01*
X73406Y160993D01*
X73453Y161032D01*
X73504Y161072D01*
X73555Y161107D01*
X73606Y161139D01*
X73662Y161166D01*
X73717Y161194D01*
X73772Y161217D01*
X73831Y161237D01*
X73890Y161257D01*
X73953Y161269D01*
X74012Y161280D01*
X74075Y161288D01*
X74134Y161296D01*
X78984D01*
X79043Y161288D01*
D02*
G37*
G36*
X66744Y161292D02*
X66929Y161276D01*
X67114Y161253D01*
X67295Y161217D01*
X67476Y161174D01*
X67654Y161123D01*
X67831Y161060D01*
X68000Y160989D01*
X68169Y160910D01*
X68331Y160820D01*
X68488Y160725D01*
X68642Y160619D01*
X68787Y160505D01*
X68929Y160387D01*
X69063Y160257D01*
X69193Y160123D01*
X69311Y159981D01*
X69425Y159836D01*
X69532Y159682D01*
X69626Y159525D01*
X69717Y159363D01*
X69795Y159194D01*
X69866Y159025D01*
X69929Y158847D01*
X69980Y158670D01*
X70024Y158489D01*
X70059Y158308D01*
X70083Y158123D01*
X70099Y157938D01*
X70102Y157753D01*
Y147910D01*
X63016D01*
Y157753D01*
X63020Y157938D01*
X63036Y158123D01*
X63059Y158308D01*
X63095Y158489D01*
X63138Y158670D01*
X63189Y158847D01*
X63252Y159025D01*
X63323Y159194D01*
X63402Y159363D01*
X63492Y159525D01*
X63587Y159682D01*
X63693Y159836D01*
X63807Y159981D01*
X63925Y160123D01*
X64055Y160257D01*
X64189Y160387D01*
X64331Y160505D01*
X64476Y160619D01*
X64630Y160725D01*
X64788Y160820D01*
X64949Y160910D01*
X65118Y160989D01*
X65288Y161060D01*
X65465Y161123D01*
X65642Y161174D01*
X65823Y161217D01*
X66004Y161253D01*
X66189Y161276D01*
X66374Y161292D01*
X66559Y161296D01*
X66744Y161292D01*
D02*
G37*
G36*
X56744D02*
X56929Y161276D01*
X57114Y161253D01*
X57295Y161217D01*
X57476Y161174D01*
X57654Y161123D01*
X57831Y161060D01*
X58000Y160989D01*
X58169Y160910D01*
X58331Y160820D01*
X58488Y160725D01*
X58642Y160619D01*
X58788Y160505D01*
X58929Y160387D01*
X59063Y160257D01*
X59193Y160123D01*
X59311Y159981D01*
X59425Y159836D01*
X59531Y159682D01*
X59626Y159525D01*
X59717Y159363D01*
X59795Y159194D01*
X59866Y159025D01*
X59929Y158847D01*
X59980Y158670D01*
X60024Y158489D01*
X60059Y158308D01*
X60083Y158123D01*
X60098Y157938D01*
X60102Y157753D01*
Y147910D01*
X53016D01*
Y157753D01*
X53020Y157938D01*
X53035Y158123D01*
X53059Y158308D01*
X53095Y158489D01*
X53138Y158670D01*
X53189Y158847D01*
X53252Y159025D01*
X53323Y159194D01*
X53402Y159363D01*
X53492Y159525D01*
X53587Y159682D01*
X53693Y159836D01*
X53807Y159981D01*
X53925Y160123D01*
X54055Y160257D01*
X54189Y160387D01*
X54331Y160505D01*
X54476Y160619D01*
X54630Y160725D01*
X54787Y160820D01*
X54949Y160910D01*
X55118Y160989D01*
X55287Y161060D01*
X55465Y161123D01*
X55642Y161174D01*
X55823Y161217D01*
X56004Y161253D01*
X56189Y161276D01*
X56374Y161292D01*
X56559Y161296D01*
X56744Y161292D01*
D02*
G37*
G36*
X46744D02*
X46929Y161276D01*
X47114Y161253D01*
X47295Y161217D01*
X47476Y161174D01*
X47654Y161123D01*
X47831Y161060D01*
X48000Y160989D01*
X48169Y160910D01*
X48331Y160820D01*
X48488Y160725D01*
X48642Y160619D01*
X48788Y160505D01*
X48929Y160387D01*
X49063Y160257D01*
X49193Y160123D01*
X49311Y159981D01*
X49425Y159836D01*
X49531Y159682D01*
X49626Y159525D01*
X49717Y159363D01*
X49795Y159194D01*
X49866Y159025D01*
X49929Y158847D01*
X49980Y158670D01*
X50024Y158489D01*
X50059Y158308D01*
X50083Y158123D01*
X50099Y157938D01*
X50102Y157753D01*
Y147910D01*
X43016D01*
Y157753D01*
X43020Y157938D01*
X43036Y158123D01*
X43059Y158308D01*
X43095Y158489D01*
X43138Y158670D01*
X43189Y158847D01*
X43252Y159025D01*
X43323Y159194D01*
X43402Y159363D01*
X43492Y159525D01*
X43587Y159682D01*
X43693Y159836D01*
X43807Y159981D01*
X43925Y160123D01*
X44055Y160257D01*
X44189Y160387D01*
X44331Y160505D01*
X44476Y160619D01*
X44630Y160725D01*
X44787Y160820D01*
X44949Y160910D01*
X45118Y160989D01*
X45287Y161060D01*
X45465Y161123D01*
X45642Y161174D01*
X45823Y161217D01*
X46004Y161253D01*
X46189Y161276D01*
X46374Y161292D01*
X46559Y161296D01*
X46744Y161292D01*
D02*
G37*
G36*
X36744D02*
X36929Y161276D01*
X37114Y161253D01*
X37295Y161217D01*
X37476Y161174D01*
X37654Y161123D01*
X37831Y161060D01*
X38000Y160989D01*
X38169Y160910D01*
X38331Y160820D01*
X38488Y160725D01*
X38642Y160619D01*
X38787Y160505D01*
X38929Y160387D01*
X39063Y160257D01*
X39193Y160123D01*
X39311Y159981D01*
X39425Y159836D01*
X39531Y159682D01*
X39626Y159525D01*
X39717Y159363D01*
X39795Y159194D01*
X39866Y159025D01*
X39929Y158847D01*
X39980Y158670D01*
X40024Y158489D01*
X40059Y158308D01*
X40083Y158123D01*
X40099Y157938D01*
X40102Y157753D01*
Y147910D01*
X33016D01*
Y157753D01*
X33020Y157938D01*
X33035Y158123D01*
X33059Y158308D01*
X33094Y158489D01*
X33138Y158670D01*
X33189Y158847D01*
X33252Y159025D01*
X33323Y159194D01*
X33402Y159363D01*
X33492Y159525D01*
X33587Y159682D01*
X33693Y159836D01*
X33807Y159981D01*
X33925Y160123D01*
X34055Y160257D01*
X34189Y160387D01*
X34331Y160505D01*
X34476Y160619D01*
X34630Y160725D01*
X34787Y160820D01*
X34949Y160910D01*
X35118Y160989D01*
X35287Y161060D01*
X35465Y161123D01*
X35642Y161174D01*
X35823Y161217D01*
X36004Y161253D01*
X36189Y161276D01*
X36374Y161292D01*
X36559Y161296D01*
X36744Y161292D01*
D02*
G37*
G36*
X29043Y161288D02*
X29106Y161280D01*
X29165Y161269D01*
X29228Y161257D01*
X29287Y161237D01*
X29346Y161217D01*
X29402Y161194D01*
X29457Y161166D01*
X29512Y161139D01*
X29563Y161107D01*
X29614Y161072D01*
X29665Y161032D01*
X29713Y160993D01*
X29756Y160950D01*
X29799Y160906D01*
X29839Y160859D01*
X29878Y160808D01*
X29913Y160757D01*
X29945Y160706D01*
X29972Y160650D01*
X30000Y160595D01*
X30024Y160540D01*
X30043Y160481D01*
X30063Y160422D01*
X30075Y160359D01*
X30087Y160300D01*
X30095Y160237D01*
X30102Y160178D01*
Y147910D01*
X23016D01*
Y160178D01*
X23024Y160237D01*
X23031Y160300D01*
X23043Y160359D01*
X23055Y160422D01*
X23075Y160481D01*
X23095Y160540D01*
X23118Y160595D01*
X23146Y160650D01*
X23173Y160706D01*
X23205Y160757D01*
X23240Y160808D01*
X23280Y160859D01*
X23319Y160906D01*
X23362Y160950D01*
X23406Y160993D01*
X23453Y161032D01*
X23504Y161072D01*
X23555Y161107D01*
X23606Y161139D01*
X23662Y161166D01*
X23717Y161194D01*
X23772Y161217D01*
X23831Y161237D01*
X23890Y161257D01*
X23953Y161269D01*
X24012Y161280D01*
X24075Y161288D01*
X24134Y161296D01*
X28984D01*
X29043Y161288D01*
D02*
G37*
G36*
X16744Y161292D02*
X16929Y161276D01*
X17114Y161253D01*
X17295Y161217D01*
X17476Y161174D01*
X17654Y161123D01*
X17831Y161060D01*
X18000Y160989D01*
X18169Y160910D01*
X18331Y160820D01*
X18488Y160725D01*
X18642Y160619D01*
X18788Y160505D01*
X18929Y160387D01*
X19063Y160257D01*
X19193Y160123D01*
X19311Y159981D01*
X19425Y159836D01*
X19532Y159682D01*
X19626Y159525D01*
X19717Y159363D01*
X19795Y159194D01*
X19866Y159025D01*
X19929Y158847D01*
X19980Y158670D01*
X20024Y158489D01*
X20059Y158308D01*
X20083Y158123D01*
X20098Y157938D01*
X20102Y157753D01*
Y147910D01*
X13016D01*
Y157753D01*
X13020Y157938D01*
X13036Y158123D01*
X13059Y158308D01*
X13094Y158489D01*
X13138Y158670D01*
X13189Y158847D01*
X13252Y159025D01*
X13323Y159194D01*
X13402Y159363D01*
X13492Y159525D01*
X13587Y159682D01*
X13693Y159836D01*
X13807Y159981D01*
X13925Y160123D01*
X14055Y160257D01*
X14189Y160387D01*
X14331Y160505D01*
X14476Y160619D01*
X14630Y160725D01*
X14787Y160820D01*
X14949Y160910D01*
X15118Y160989D01*
X15288Y161060D01*
X15465Y161123D01*
X15642Y161174D01*
X15823Y161217D01*
X16004Y161253D01*
X16189Y161276D01*
X16374Y161292D01*
X16559Y161296D01*
X16744Y161292D01*
D02*
G37*
G36*
X6744D02*
X6929Y161276D01*
X7114Y161253D01*
X7295Y161217D01*
X7476Y161174D01*
X7654Y161123D01*
X7831Y161060D01*
X8000Y160989D01*
X8169Y160910D01*
X8331Y160820D01*
X8488Y160725D01*
X8642Y160619D01*
X8787Y160505D01*
X8929Y160387D01*
X9063Y160257D01*
X9193Y160123D01*
X9311Y159981D01*
X9425Y159836D01*
X9532Y159682D01*
X9626Y159525D01*
X9717Y159363D01*
X9795Y159194D01*
X9866Y159025D01*
X9929Y158847D01*
X9980Y158670D01*
X10024Y158489D01*
X10059Y158308D01*
X10083Y158123D01*
X10098Y157938D01*
X10102Y157753D01*
Y147910D01*
X3016D01*
Y157753D01*
X3020Y157938D01*
X3036Y158123D01*
X3059Y158308D01*
X3094Y158489D01*
X3138Y158670D01*
X3189Y158847D01*
X3252Y159025D01*
X3323Y159194D01*
X3402Y159363D01*
X3492Y159525D01*
X3587Y159682D01*
X3693Y159836D01*
X3807Y159981D01*
X3925Y160123D01*
X4055Y160257D01*
X4189Y160387D01*
X4331Y160505D01*
X4476Y160619D01*
X4630Y160725D01*
X4787Y160820D01*
X4949Y160910D01*
X5118Y160989D01*
X5287Y161060D01*
X5465Y161123D01*
X5642Y161174D01*
X5823Y161217D01*
X6004Y161253D01*
X6189Y161276D01*
X6374Y161292D01*
X6559Y161296D01*
X6744Y161292D01*
D02*
G37*
D20*
X19000Y202300D02*
D03*
Y183206D02*
D03*
D21*
X7071Y203481D02*
D03*
Y182025D02*
D03*
D22*
X52346Y182910D02*
D03*
X42504D02*
D03*
X32662D02*
D03*
X18882Y192753D02*
D03*
X5890Y196690D02*
D03*
Y188816D02*
D03*
D23*
X57866Y32400D02*
D03*
X66134D02*
D03*
D24*
X62699Y38900D02*
D03*
X66101D02*
D03*
D25*
X388200Y234000D02*
D03*
Y224000D02*
D03*
Y214000D02*
D03*
Y204000D02*
D03*
Y194000D02*
D03*
Y184000D02*
D03*
Y174000D02*
D03*
Y164000D02*
D03*
Y154000D02*
D03*
Y144000D02*
D03*
Y134000D02*
D03*
Y124000D02*
D03*
Y114000D02*
D03*
D26*
Y104000D02*
D03*
D27*
X68200Y83000D02*
D03*
Y256000D02*
D03*
X369700Y81500D02*
D03*
Y256500D02*
D03*
X318867Y178680D02*
D03*
X208200Y192900D02*
D03*
X182000Y220300D02*
D03*
X133500Y244800D02*
D03*
X176500Y144800D02*
D03*
X93200Y243600D02*
D03*
X34000Y243400D02*
D03*
X126500Y145300D02*
D03*
X76500Y144800D02*
D03*
X26500Y144300D02*
D03*
X22500Y255000D02*
D03*
X86559Y144941D02*
D03*
X96200Y144900D02*
D03*
X522516Y19000D02*
D03*
X22500D02*
D03*
X522516Y255000D02*
D03*
D28*
X532606Y110643D02*
D03*
X483394D02*
D03*
X414394D02*
D03*
X463606D02*
D03*
X449394Y236042D02*
D03*
X498606D02*
D03*
X414394Y173343D02*
D03*
X463606D02*
D03*
X483394D02*
D03*
X532606D02*
D03*
X483394Y90957D02*
D03*
X414394D02*
D03*
X449394Y216357D02*
D03*
X414394Y153657D02*
D03*
X483394D02*
D03*
D29*
X107500Y14200D02*
D03*
Y44200D02*
D03*
Y24200D02*
D03*
Y34200D02*
D03*
D30*
X19000Y124202D02*
D03*
D31*
X45470Y65443D02*
D03*
D32*
Y45757D02*
D03*
D33*
X6100Y77254D02*
D03*
Y33946D02*
D03*
D34*
X532606Y90957D02*
D03*
X463606D02*
D03*
X498606Y216357D02*
D03*
X463606Y153657D02*
D03*
X532606D02*
D03*
D35*
X508000Y83083D02*
D03*
Y118517D02*
D03*
X439000D02*
D03*
Y83083D02*
D03*
X474000Y243917D02*
D03*
Y208484D02*
D03*
X439000Y181217D02*
D03*
Y145783D02*
D03*
X508000Y181217D02*
D03*
Y145783D02*
D03*
D36*
X290000Y55500D02*
D03*
Y12500D02*
D03*
X203000D02*
D03*
Y55500D02*
D03*
D37*
X19000Y116300D02*
D03*
Y108402D02*
D03*
D38*
X107500Y54200D02*
D03*
D39*
X180500Y13200D02*
D03*
Y55200D02*
D03*
D40*
X57900Y27900D02*
D03*
M02*
