G04*
G04 #@! TF.GenerationSoftware,Altium Limited,Altium Designer,26.3.0 (6)*
G04*
G04 Layer_Color=16711935*
%FSLAX25Y25*%
%MOIN*%
G70*
G04*
G04 #@! TF.SameCoordinates,D4C32256-51F4-4DD4-AA79-378863D69736*
G04*
G04*
G04 #@! TF.FilePolarity,Negative*
G04*
G01*
G75*
G04:AMPARAMS|DCode=25|XSize=67.06mil|YSize=67.06mil|CornerRadius=33.53mil|HoleSize=0mil|Usage=FLASHONLY|Rotation=90.000|XOffset=0mil|YOffset=0mil|HoleType=Round|Shape=RoundedRectangle|*
%AMROUNDEDRECTD25*
21,1,0.06706,0.00000,0,0,90.0*
21,1,0.00000,0.06706,0,0,90.0*
1,1,0.06706,0.00000,0.00000*
1,1,0.06706,0.00000,0.00000*
1,1,0.06706,0.00000,0.00000*
1,1,0.06706,0.00000,0.00000*
%
%ADD25ROUNDEDRECTD25*%
G04:AMPARAMS|DCode=26|XSize=67.06mil|YSize=67.06mil|CornerRadius=33.53mil|HoleSize=0mil|Usage=FLASHONLY|Rotation=90.000|XOffset=0mil|YOffset=0mil|HoleType=Round|Shape=RoundedRectangle|*
%AMROUNDEDRECTD26*
21,1,0.06706,0.00000,0,0,90.0*
21,1,0.00000,0.06706,0,0,90.0*
1,1,0.06706,0.00000,0.00000*
1,1,0.06706,0.00000,0.00000*
1,1,0.06706,0.00000,0.00000*
1,1,0.06706,0.00000,0.00000*
%
%ADD26ROUNDEDRECTD26*%
%ADD27C,0.06800*%
%ADD28C,0.08182*%
%ADD29C,0.06304*%
%ADD30R,0.05328X0.05328*%
%ADD31C,0.10839*%
%ADD32R,0.10839X0.10839*%
%ADD33C,0.06737*%
%ADD34R,0.08182X0.08182*%
%ADD35C,0.08083*%
%ADD36C,0.08800*%
%ADD37C,0.05328*%
%ADD38R,0.06304X0.06304*%
%ADD39C,0.12611*%
%ADD40C,0.03300*%
D25*
X388200Y234000D02*
D03*
Y224000D02*
D03*
Y214000D02*
D03*
Y204000D02*
D03*
Y194000D02*
D03*
Y184000D02*
D03*
Y174000D02*
D03*
Y164000D02*
D03*
Y154000D02*
D03*
Y144000D02*
D03*
Y134000D02*
D03*
Y124000D02*
D03*
Y114000D02*
D03*
D26*
Y104000D02*
D03*
D27*
X68200Y83000D02*
D03*
Y256000D02*
D03*
X369700Y81500D02*
D03*
Y256500D02*
D03*
X318867Y178680D02*
D03*
X208200Y192900D02*
D03*
X182000Y220300D02*
D03*
X133500Y244800D02*
D03*
X176500Y144800D02*
D03*
X93200Y243600D02*
D03*
X34000Y243400D02*
D03*
X126500Y145300D02*
D03*
X76500Y144800D02*
D03*
X26500Y144300D02*
D03*
X22500Y255000D02*
D03*
X86559Y144941D02*
D03*
X96200Y144900D02*
D03*
X522516Y19000D02*
D03*
X22500D02*
D03*
X522516Y255000D02*
D03*
D28*
X532606Y110643D02*
D03*
X483394D02*
D03*
X414394D02*
D03*
X463606D02*
D03*
X449394Y236042D02*
D03*
X498606D02*
D03*
X414394Y173343D02*
D03*
X463606D02*
D03*
X483394D02*
D03*
X532606D02*
D03*
X483394Y90957D02*
D03*
X414394D02*
D03*
X449394Y216357D02*
D03*
X414394Y153657D02*
D03*
X483394D02*
D03*
D29*
X107500Y14200D02*
D03*
Y44200D02*
D03*
Y24200D02*
D03*
Y34200D02*
D03*
D30*
X19000Y124202D02*
D03*
D31*
X45470Y65443D02*
D03*
D32*
Y45757D02*
D03*
D33*
X6100Y77254D02*
D03*
Y33946D02*
D03*
D34*
X532606Y90957D02*
D03*
X463606D02*
D03*
X498606Y216357D02*
D03*
X463606Y153657D02*
D03*
X532606D02*
D03*
D35*
X508000Y83083D02*
D03*
Y118517D02*
D03*
X439000D02*
D03*
Y83083D02*
D03*
X474000Y243917D02*
D03*
Y208484D02*
D03*
X439000Y181217D02*
D03*
Y145783D02*
D03*
X508000Y181217D02*
D03*
Y145783D02*
D03*
D36*
X290000Y55500D02*
D03*
Y12500D02*
D03*
X203000D02*
D03*
Y55500D02*
D03*
D37*
X19000Y116300D02*
D03*
Y108402D02*
D03*
D38*
X107500Y54200D02*
D03*
D39*
X180500Y13200D02*
D03*
Y55200D02*
D03*
D40*
X57900Y27900D02*
D03*
M02*
